<svg width="256" height="256" viewBox="0 0 256 256" fill="none" xmlns="http://www.w3.org/2000/svg">
<path d="M177.464 16.764C180.461 17.1363 183.38 17.9816 186.112 19.2685C192.262 22.1089 196.968 26.5159 200.339 32.3842C204.561 39.7357 208.799 47.0789 213.051 54.4136C213.095 54.5026 213.133 54.5943 213.166 54.6882C213.343 57.3167 213.375 59.9529 213.262 62.5849C212.589 75.8533 208.281 87.8126 200.216 98.3786C191.62 109.602 179.543 117.656 165.878 121.278C152.213 124.9 137.732 123.886 124.705 118.393C118.132 115.641 112.082 111.778 106.819 106.974C106.415 106.607 106.234 106.649 105.873 107.01C96.3114 116.59 86.7454 126.167 77.1753 135.74C76.7335 136.183 76.5261 136.157 76.1038 135.73C72.8015 132.384 69.4158 129.119 66.164 125.725C61.7876 121.158 59.1944 115.682 58.6152 109.378C57.6434 98.8029 61.4611 90.2382 69.8042 83.6878C70.1737 83.3977 70.2019 83.2622 69.8595 82.9312C68.2715 81.3963 66.7072 79.8369 65.1431 78.2777C64.9325 78.0606 64.6688 77.9023 64.3782 77.8186C58.5093 76.1069 52.6455 74.3773 46.7695 72.6906C46.148 72.5122 46.1049 72.3076 46.2818 71.7482C46.8555 69.9341 47.377 68.1032 47.8925 66.2714C48.0055 65.8698 48.1072 65.7178 48.5785 65.857C55.1013 67.7843 61.6287 69.6962 68.1607 71.5926C68.4288 71.6827 68.6686 71.8416 68.8561 72.0533C71.3575 74.538 73.8587 77.0228 76.3598 79.5079C76.4523 79.634 76.5845 79.7253 76.7352 79.7673C76.8858 79.8093 77.0462 79.7996 77.1906 79.7396C88.3891 76.1697 98.2541 78.4321 106.786 86.5269C107.208 86.9289 107.395 86.8722 107.766 86.5016C128.995 65.2615 150.23 44.0273 171.471 22.7991C173.305 20.9654 175.141 19.1334 176.978 17.3031C177.149 17.1324 177.303 16.9441 177.464 16.764ZM149.421 102.324C153.01 102.339 156.585 101.893 160.06 100.996C172.6 97.6333 181.876 90.1585 187.766 78.6105C191.472 71.3451 192.802 63.5695 192.011 55.4441C191.434 49.436 189.579 43.6207 186.571 38.3879C186.332 37.969 186.211 37.8957 185.833 38.2749C166.613 57.5069 147.384 76.7297 128.146 95.9434C127.792 96.2978 127.835 96.405 128.249 96.6415C134.693 100.341 141.99 102.3 149.421 102.324V102.324ZM72.4876 106.907C72.5379 109.936 73.7376 113.139 76.1775 115.871C76.5053 116.238 76.6926 116.328 77.1019 115.917C83.4749 109.515 89.8626 103.128 96.2653 96.755C96.632 96.3896 96.6201 96.205 96.243 95.8722C93.1184 93.1154 89.4925 91.8465 85.3376 92.2382C78.0396 92.9262 72.4936 99.0131 72.4876 106.907Z" fill="#E61C34"/>
<path d="M213.792 201.054C211.452 205.121 209.127 209.196 206.767 213.251C204.235 217.605 201.909 222.09 199.141 226.295C194.137 233.895 187.03 238.389 178.075 239.965C178.015 239.97 177.954 239.969 177.894 239.962C177.227 239.284 176.563 238.601 175.89 237.928C149.926 211.971 123.958 186.017 97.9869 160.068C97.5527 159.634 97.5055 159.413 97.973 158.962C101.472 155.587 104.735 151.967 108.43 148.797C117.147 141.249 127.769 136.238 139.138 134.311C144.129 133.423 149.211 133.155 154.268 133.514C168.683 134.57 181.386 139.797 192.242 149.359C204.886 160.485 212.592 176.178 213.667 192.985C213.825 195.436 213.801 197.885 213.737 200.336C213.694 200.576 213.713 200.823 213.792 201.054V201.054ZM189.828 181.743C189.77 181.773 189.714 181.809 189.661 181.848C183.099 188.406 176.535 194.961 169.969 201.515C169.597 201.884 169.828 202.037 170.064 202.273C175.467 207.669 180.864 213.071 186.257 218.477C186.691 218.912 186.817 218.812 187.08 218.342C192.184 209.225 193.812 199.526 191.966 189.247C191.501 186.681 190.785 184.168 189.828 181.743V181.743ZM159.747 191.842C159.853 191.744 159.974 191.64 160.088 191.526C167.38 184.237 174.674 176.951 181.971 169.667C182.302 169.337 182.265 169.166 181.977 168.846C179.717 166.326 177.181 164.067 174.416 162.113C174.005 161.823 173.793 161.829 173.428 162.195C166.723 168.925 160.007 175.644 153.282 182.353C152.852 182.783 152.434 183.226 151.987 183.637C151.75 183.856 151.764 183.986 151.99 184.211C154.462 186.666 156.929 189.127 159.389 191.594C159.486 191.691 159.563 191.821 159.747 191.842H159.747ZM160.044 155.803C155.277 154.547 150.319 154.183 145.42 154.731C139.545 155.36 133.865 157.2 128.736 160.133C128.3 160.381 128.282 160.519 128.644 160.878C132.852 165.06 137.047 169.257 141.227 173.468C141.689 173.934 141.896 173.843 142.299 173.438C148.016 167.698 153.742 161.969 159.479 156.251C159.658 156.09 159.847 155.941 160.044 155.803H160.044Z" fill="#E61C34"/>
<path d="M39.1559 83.1914C39.0045 82.713 39.2287 82.5654 39.7938 82.5196C44.8387 82.1114 49.8808 81.6673 54.9238 81.2338C56.3762 81.1089 57.8289 80.9875 59.2808 80.8565C59.5019 80.8307 59.7243 80.8931 59.8998 81.0302C61.7568 82.4021 63.6183 83.768 65.4842 85.1278C65.7612 85.3287 65.7814 85.4613 65.5733 85.7393C64.3475 87.377 63.1297 89.021 61.9418 90.6863C61.6841 91.0476 61.5251 90.9772 61.2394 90.7616C60.1723 89.9567 59.0865 89.1764 58.016 88.3758C57.9012 88.279 57.7685 88.2058 57.6254 88.1604C57.4822 88.1149 57.3316 88.0982 57.1819 88.1111C53.5919 88.4271 50.0014 88.736 46.4102 89.0376C44.3324 89.2154 42.2542 89.3879 40.1776 89.5785C39.8219 89.6111 39.6805 89.5388 39.6515 89.1467C39.5069 87.188 39.3292 85.2319 39.1559 83.1914Z" fill="#E61C34"/>
<path d="M128 14.6811C154.143 14.6999 179.475 23.7544 199.707 40.311C219.938 56.8675 233.825 79.9082 239.015 105.531C244.205 131.153 240.379 157.781 228.185 180.906C215.991 204.03 196.179 222.229 172.104 232.42C144.415 244.092 113.224 244.292 85.3878 232.976C57.5512 221.66 35.3468 199.754 23.6551 172.073C11.9634 144.392 11.7411 113.201 23.0372 85.3566C34.3332 57.5119 56.2232 35.2918 83.8957 23.5802C97.8487 17.6768 112.85 14.65 128 14.6811M128 0.000106061C57.3076 0.000106061 0 57.3077 0 128C0 198.693 57.3076 256 128 256C198.692 256 256 198.692 256 128C256 57.3076 198.692 0 128 0V0.000106061Z" fill="#E61C34"/>
</svg>
