<svg width="128" height="128" viewBox="0 0 128 128" fill="none" xmlns="http://www.w3.org/2000/svg">
<path d="M88.732 8.38196C90.2305 8.56808 91.6899 8.99076 93.056 9.63421C96.1308 11.0544 98.4839 13.2579 100.169 16.192C102.281 19.8678 104.399 23.5394 106.525 27.2067C106.547 27.2512 106.567 27.2971 106.583 27.3441C106.671 28.6583 106.688 29.9764 106.631 31.2924C106.295 37.9266 104.14 43.9062 100.108 49.1893C95.8101 54.8009 89.7715 58.8279 82.9389 60.6389C76.1063 62.45 68.8659 61.9427 62.3526 59.1967C59.0661 57.8205 56.0409 55.8891 53.4094 53.4869C53.2073 53.3032 53.1167 53.3243 52.9366 53.5048C48.1556 58.2951 43.3726 63.0834 38.5876 67.8697C38.3667 68.0913 38.263 68.0786 38.0518 67.8647C36.4007 66.1919 34.7079 64.5594 33.0819 62.8626C30.8937 60.579 29.5971 57.8408 29.3075 54.6891C28.8216 49.4014 30.7305 45.119 34.902 41.8438C35.0868 41.6988 35.1009 41.631 34.9297 41.4655C34.1357 40.6981 33.3535 39.9184 32.5715 39.1388C32.4662 39.0302 32.3343 38.9511 32.189 38.9092C29.2546 38.0534 26.3227 37.1886 23.3847 36.3453C23.0739 36.2561 23.0524 36.1537 23.1408 35.874C23.4277 34.967 23.6885 34.0515 23.9462 33.1356C24.0027 32.9348 24.0535 32.8588 24.2892 32.9285C27.5506 33.8921 30.8143 34.848 34.0803 35.7962C34.2143 35.8413 34.3342 35.9207 34.428 36.0266C35.6787 37.2689 36.9293 38.5114 38.1798 39.7539C38.2261 39.8169 38.2922 39.8626 38.3675 39.8836C38.4428 39.9046 38.523 39.8997 38.5952 39.8697C44.1945 38.0848 49.127 39.216 53.3927 43.2634C53.6038 43.4644 53.6975 43.436 53.8827 43.2507C64.4972 32.6307 75.1148 22.0136 85.7353 11.3995C86.6524 10.4826 87.5704 9.56663 88.4892 8.6515C88.5746 8.56615 88.6513 8.47201 88.732 8.38196ZM74.7105 51.162C76.5048 51.1696 78.2927 50.9465 80.0301 50.4982C86.3 48.8166 90.9378 45.0792 93.883 39.3052C95.736 35.6725 96.4007 31.7847 96.0056 27.722C95.7169 24.718 94.7895 21.8103 93.2855 19.1939C93.1661 18.9844 93.1057 18.9478 92.9162 19.1374C83.3064 28.7534 73.6921 38.3648 64.0732 47.9716C63.8958 48.1488 63.9174 48.2025 64.1244 48.3207C67.3466 50.1706 70.995 51.1498 74.7105 51.162V51.162ZM36.2437 53.4535C36.2689 54.9681 36.8687 56.5694 38.0887 57.9355C38.2526 58.1191 38.3463 58.1641 38.5509 57.9585C41.7374 54.7574 44.9313 51.5637 48.1326 48.3774C48.316 48.1947 48.31 48.1024 48.1214 47.936C46.5591 46.5576 44.7462 45.9232 42.6687 46.119C39.0198 46.463 36.2467 49.5065 36.2437 53.4535Z" fill="#E61C34"/>
<path d="M106.896 100.527C105.726 102.56 104.563 104.598 103.384 106.626C102.117 108.803 100.955 111.045 99.5704 113.148C97.0688 116.947 93.5153 119.194 89.0375 119.983C89.0074 119.985 88.9772 119.984 88.9472 119.981C88.6134 119.642 88.2818 119.301 87.9452 118.964C74.9632 105.985 61.9793 93.0087 48.9935 80.0338C48.7765 79.817 48.7528 79.7066 48.9866 79.4811C50.736 77.7936 52.3678 75.9837 54.2153 74.3986C58.5737 70.6245 63.8845 68.1192 69.5689 67.1557C72.0646 66.7114 74.6056 66.5775 77.1342 66.7569C84.3415 67.285 90.6933 69.8983 96.1213 74.6797C102.443 80.2428 106.296 88.0889 106.834 96.4926C106.912 97.7178 106.9 98.9424 106.869 100.168C106.847 100.288 106.857 100.412 106.896 100.527V100.527ZM94.9141 90.8713C94.8849 90.8867 94.857 90.9044 94.8305 90.9242C91.5496 94.203 88.2676 97.4807 84.9844 100.757C84.7988 100.942 84.9141 101.018 85.0321 101.136C87.7334 103.835 90.4323 106.535 93.1287 109.238C93.3454 109.456 93.4087 109.406 93.5403 109.171C96.0921 104.612 96.9063 99.7633 95.9829 94.6236C95.7508 93.3407 95.3928 92.0839 94.9141 90.8713V90.8713ZM79.8736 95.921C79.9264 95.8723 79.9873 95.8198 80.044 95.7631C83.69 92.1187 87.3372 88.4755 90.9855 84.8335C91.1509 84.6687 91.1327 84.5833 90.9888 84.4232C89.8586 83.1629 88.5904 82.0336 87.2081 81.0565C87.0028 80.9115 86.8966 80.9144 86.714 81.0977C83.3614 84.4624 80.0037 87.8222 76.641 91.1768C76.4261 91.3916 76.2171 91.6128 75.9938 91.8185C75.8749 91.928 75.8819 91.9932 75.9951 92.1057C77.2313 93.333 78.4644 94.5634 79.6944 95.7969C79.7431 95.8453 79.7815 95.9106 79.8735 95.921H79.8736ZM80.0219 77.9016C77.6385 77.2734 75.1595 77.0917 72.71 77.3656C69.7727 77.6802 66.9325 78.5998 64.3683 80.0667C64.1499 80.1904 64.1411 80.2593 64.3219 80.439C66.4263 82.5302 68.5236 84.6286 70.6138 86.7341C70.8445 86.9671 70.9481 86.9214 71.1498 86.7189C74.0079 83.8491 76.8711 80.9846 79.7396 78.1253C79.8292 78.0452 79.9234 77.9705 80.0218 77.9016H80.0219Z" fill="#E61C34"/>
<path d="M19.578 41.5956C19.5023 41.3564 19.6143 41.2826 19.8969 41.2597C22.4194 41.0556 24.9404 40.8335 27.4619 40.6168C28.1881 40.5544 28.9145 40.4937 29.6404 40.4281C29.751 40.4152 29.8622 40.4464 29.9499 40.515C30.8784 41.201 31.8092 41.8839 32.7421 42.5638C32.8806 42.6643 32.8907 42.7305 32.7867 42.8696C32.1738 43.6884 31.5648 44.5104 30.9709 45.3431C30.842 45.5237 30.7625 45.4885 30.6197 45.3807C30.0861 44.9782 29.5432 44.5881 29.008 44.1878C28.9506 44.1394 28.8842 44.1028 28.8127 44.0801C28.7411 44.0574 28.6658 44.049 28.591 44.0554C26.796 44.2135 25.0007 44.3679 23.2051 44.5187C22.1662 44.6076 21.1271 44.6938 20.0888 44.7891C19.911 44.8055 19.8402 44.7693 19.8258 44.5733C19.7535 43.5939 19.6646 42.6158 19.578 41.5956Z" fill="#E61C34"/>
<path d="M64 7.34056C77.0713 7.34995 89.7376 11.8772 99.8534 20.1555C109.969 28.4337 116.913 39.9541 119.508 52.7653C122.103 65.5764 120.19 78.8907 114.093 90.453C107.996 102.015 98.0895 111.115 86.0522 116.21C72.2075 122.046 56.6122 122.146 42.6939 116.488C28.7756 110.83 17.6734 99.8768 11.8276 86.0364C5.9817 72.1959 5.87057 56.6006 11.5186 42.6783C17.1666 28.756 28.1116 17.6459 41.9478 11.7901C48.9243 8.8384 56.4248 7.325 64 7.34056M64 5.30304e-05C28.6538 5.30304e-05 0 28.6538 0 64.0001C0 99.3463 28.6538 128 64 128C99.3462 128 128 99.3462 128 64C128 28.6538 99.3462 0 64 0V5.30304e-05Z" fill="#E61C34"/>
</svg>
