<svg width="192" height="192" viewBox="0 0 192 192" fill="none" xmlns="http://www.w3.org/2000/svg">
<path d="M133.098 12.573C135.346 12.8522 137.535 13.4862 139.584 14.4514C144.196 16.5817 147.726 19.8869 150.254 24.2881C153.421 29.8018 156.599 35.3091 159.788 40.8102C159.821 40.8769 159.85 40.9457 159.874 41.0161C160.007 42.9875 160.031 44.9647 159.947 46.9387C159.442 56.89 156.21 65.8594 150.162 73.7839C143.715 82.2015 134.657 88.2419 124.408 90.9585C114.16 93.675 103.299 92.9141 93.529 88.7951C88.5992 86.7309 84.0614 83.8337 80.1142 80.2304C79.811 79.9549 79.6751 79.9865 79.405 80.2572C72.2335 87.4427 65.059 94.6252 57.8815 101.805C57.5501 102.137 57.3945 102.118 57.0778 101.797C54.6011 99.2879 52.0618 96.8391 49.623 94.2939C46.3407 90.8685 44.3958 86.7613 43.9614 82.0337C43.2325 74.1021 46.0958 67.6786 52.3531 62.7658C52.6302 62.5483 52.6514 62.4466 52.3946 62.1984C51.2036 61.0472 50.0304 59.8777 48.8573 58.7082C48.6993 58.5454 48.5016 58.4267 48.2836 58.3639C43.8819 57.0801 39.4841 55.7829 35.0771 54.5179C34.6109 54.3842 34.5786 54.2307 34.7113 53.8111C35.1416 52.4505 35.5327 51.0773 35.9193 49.7035C36.0041 49.4023 36.0804 49.2883 36.4339 49.3927C41.326 50.8382 46.2215 52.2721 51.1205 53.6944C51.3216 53.762 51.5014 53.8812 51.642 54.04C53.5181 55.9035 55.394 57.7671 57.2698 59.6309C57.3392 59.7254 57.4384 59.794 57.5513 59.8255C57.6643 59.857 57.7846 59.8496 57.8929 59.8046C66.2918 57.1272 73.6905 58.8241 80.0892 64.8951C80.4057 65.1966 80.5463 65.1541 80.8241 64.8762C96.7459 48.9461 112.672 33.0204 128.603 17.0993C129.979 15.724 131.356 14.35 132.734 12.9773C132.862 12.8493 132.977 12.7081 133.098 12.573ZM112.066 76.743C114.757 76.7545 117.439 76.4199 120.045 75.7473C129.45 73.225 136.407 67.6188 140.825 58.9579C143.604 53.5088 144.601 47.6771 144.008 41.5831C143.575 37.077 142.184 32.7155 139.928 28.7909C139.749 28.4767 139.659 28.4218 139.374 28.7061C124.96 43.1301 110.538 57.5472 96.1098 71.9575C95.8437 72.2233 95.8761 72.3037 96.1866 72.4811C101.02 75.256 106.493 76.7248 112.066 76.743V76.743ZM54.3657 80.1803C54.4034 82.4523 55.3031 84.8542 57.1331 86.9034C57.3789 87.1787 57.5195 87.2462 57.8264 86.9378C62.6061 82.1361 67.3969 77.3456 72.1989 72.5662C72.474 72.2922 72.465 72.1537 72.1822 71.9041C69.8388 69.8365 67.1193 68.8848 64.0032 69.1786C58.5297 69.6946 54.3702 74.2598 54.3657 80.1803Z" fill="#E61C34"/>
<path d="M160.344 150.791C158.589 153.841 156.845 156.897 155.076 159.938C153.176 163.204 151.432 166.567 149.356 169.721C145.603 175.421 140.273 178.791 133.556 179.974C133.511 179.977 133.466 179.977 133.421 179.972C132.92 179.463 132.423 178.951 131.918 178.446C112.445 158.978 92.9689 139.513 73.4902 120.051C73.1646 119.725 73.1291 119.56 73.4797 119.222C76.1039 116.69 78.5515 113.975 81.3228 111.598C87.8605 105.937 95.8267 102.179 104.353 100.733C108.097 100.067 111.908 99.8662 115.701 100.135C126.512 100.927 136.04 104.847 144.182 112.02C153.664 120.364 159.444 132.133 160.25 144.739C160.368 146.577 160.35 148.413 160.303 150.252C160.271 150.432 160.285 150.617 160.344 150.791V150.791ZM142.371 136.307C142.327 136.33 142.285 136.357 142.246 136.386C137.324 141.304 132.401 146.221 127.477 151.136C127.198 151.413 127.371 151.527 127.548 151.704C131.6 155.752 135.648 159.803 139.693 163.858C140.018 164.184 140.113 164.109 140.31 163.757C144.138 156.919 145.359 149.645 143.974 141.935C143.626 140.011 143.089 138.126 142.371 136.307V136.307ZM119.81 143.881C119.889 143.808 119.981 143.73 120.066 143.645C125.535 138.178 131.006 132.713 136.478 127.25C136.726 127.003 136.699 126.875 136.483 126.635C134.788 124.744 132.885 123.05 130.812 121.585C130.504 121.367 130.345 121.372 130.071 121.646C125.042 126.694 120.005 131.733 114.961 136.765C114.639 137.087 114.326 137.419 113.991 137.728C113.812 137.892 113.823 137.99 113.993 138.158C115.847 139.999 117.696 141.845 119.542 143.695C119.614 143.768 119.672 143.866 119.81 143.881H119.81ZM120.033 116.852C116.458 115.91 112.739 115.638 109.065 116.048C104.659 116.52 100.399 117.9 96.5524 120.1C96.2247 120.286 96.2115 120.389 96.4827 120.658C99.6394 123.795 102.785 126.943 105.921 130.101C106.267 130.451 106.422 130.382 106.725 130.078C111.012 125.774 115.307 121.477 119.609 117.188C119.744 117.068 119.885 116.956 120.033 116.852H120.033Z" fill="#E61C34"/>
<path d="M29.3669 62.3936C29.2534 62.0347 29.4215 61.924 29.8453 61.8897C33.6291 61.5835 37.4106 61.2504 41.1928 60.9253C42.2822 60.8317 43.3717 60.7406 44.4606 60.6423C44.6264 60.623 44.7932 60.6698 44.9248 60.7726C46.3176 61.8016 47.7138 62.826 49.1132 63.8459C49.3209 63.9965 49.3361 64.0959 49.18 64.3045C48.2607 65.5327 47.3472 66.7658 46.4564 68.0147C46.2631 68.2857 46.1438 68.2329 45.9295 68.0712C45.1292 67.4675 44.3149 66.8823 43.512 66.2819C43.4259 66.2093 43.3264 66.1543 43.219 66.1203C43.1117 66.0862 42.9987 66.0736 42.8865 66.0833C40.194 66.3203 37.501 66.552 34.8076 66.7782C33.2493 66.9115 31.6906 67.0409 30.1332 67.1838C29.8665 67.2083 29.7604 67.1541 29.7386 66.86C29.6302 65.391 29.4969 63.9239 29.3669 62.3936Z" fill="#E61C34"/>
<path d="M96 11.0108C115.607 11.0249 134.606 17.8158 149.78 30.2332C164.954 42.6506 175.369 59.9312 179.261 79.1479C183.154 98.3646 180.284 118.336 171.139 135.679C161.993 153.023 147.134 166.672 129.078 174.315C108.311 183.069 84.9183 183.219 64.0408 174.732C43.1634 166.245 26.5101 149.815 17.7413 129.055C8.97255 108.294 8.80586 84.901 17.2779 64.0175C25.7499 43.1339 42.1674 26.4689 62.9217 17.6852C73.3865 13.2576 84.6372 10.9875 96 11.0108M96 7.95456e-05C42.9807 7.95456e-05 0 42.9808 0 96.0001C0 149.019 42.9807 192 96 192C149.019 192 192 149.019 192 96C192 42.9807 149.019 0 96 0V7.95456e-05Z" fill="#E61C34"/>
</svg>
