<svg width="512" height="512" viewBox="0 0 512 512" fill="none" xmlns="http://www.w3.org/2000/svg">
<path d="M354.928 33.5281C360.922 34.2726 366.76 35.9633 372.224 38.5371C384.523 44.2179 393.936 53.0318 400.677 64.7684C409.123 79.4715 417.597 94.1577 426.101 108.827C426.19 109.005 426.267 109.189 426.332 109.376C426.686 114.633 426.75 119.906 426.524 125.17C425.179 151.707 416.561 175.625 400.433 196.757C383.241 219.204 359.086 235.312 331.756 242.556C304.426 249.8 275.464 247.771 249.411 236.787C236.265 231.282 224.164 223.557 213.638 213.948C212.829 213.213 212.467 213.298 211.747 214.019C192.623 233.181 173.491 252.334 154.351 271.479C153.467 272.365 153.052 272.315 152.208 271.459C145.603 264.768 138.832 258.238 132.328 251.451C123.575 242.316 118.389 231.363 117.23 218.757C115.287 197.606 122.922 180.476 139.608 167.376C140.347 166.795 140.404 166.524 139.719 165.862C136.543 162.793 133.414 159.674 130.286 156.555C129.865 156.121 129.338 155.805 128.756 155.637C117.019 152.214 105.291 148.755 93.539 145.381C92.2959 145.024 92.2097 144.615 92.5636 143.496C93.7109 139.868 94.7541 136.206 95.7849 132.543C96.0109 131.74 96.2144 131.436 97.157 131.714C110.203 135.569 123.257 139.392 136.321 143.185C136.858 143.365 137.337 143.683 137.712 144.107C142.715 149.076 147.717 154.046 152.72 159.016C152.905 159.268 153.169 159.451 153.47 159.535C153.772 159.619 154.092 159.599 154.381 159.479C176.778 152.339 196.508 156.864 213.571 173.054C214.415 173.858 214.79 173.744 215.531 173.003C257.989 130.523 300.459 88.0546 342.941 45.5981C346.61 41.9307 350.282 38.2668 353.957 34.6063C354.299 34.2648 354.605 33.8883 354.928 33.5281ZM298.842 204.648C306.019 204.679 313.171 203.786 320.121 201.993C345.2 195.267 363.751 180.317 375.532 157.221C382.944 142.69 385.603 127.139 384.023 110.888C382.868 98.8721 379.158 87.2414 373.142 76.7758C372.664 75.9379 372.423 75.7914 371.665 76.5497C333.226 115.014 294.769 153.459 256.293 191.887C255.583 192.596 255.67 192.81 256.498 193.283C269.387 200.683 283.98 204.599 298.842 204.648V204.648ZM144.975 213.814C145.076 219.873 147.475 226.278 152.355 231.742C153.011 232.477 153.385 232.657 154.204 231.834C166.95 219.03 179.725 206.255 192.531 193.51C193.264 192.779 193.24 192.41 192.486 191.744C186.237 186.231 178.985 183.693 170.675 184.476C156.079 185.852 144.987 198.026 144.975 213.814Z" fill="#E61C34"/>
<path d="M427.584 402.109C422.903 410.242 418.253 418.392 413.535 426.503C408.469 435.211 403.819 444.18 398.281 452.59C388.275 467.789 374.061 476.777 356.149 479.93C356.029 479.94 355.908 479.938 355.788 479.924C354.453 478.568 353.127 477.202 351.781 475.856C299.853 423.942 247.917 372.035 195.974 320.135C195.105 319.268 195.011 318.826 195.946 317.924C202.944 311.174 209.471 303.935 216.861 297.594C234.295 282.498 255.538 272.477 278.275 268.623C288.258 266.846 298.422 266.31 308.537 267.028C337.366 269.14 362.773 279.593 384.485 298.719C409.772 320.971 425.185 352.356 427.334 385.97C427.649 390.871 427.601 395.769 427.475 400.671C427.388 401.152 427.426 401.647 427.584 402.109V402.109ZM379.656 363.485C379.539 363.547 379.427 363.618 379.322 363.697C366.198 376.812 353.07 389.923 339.937 403.029C339.195 403.769 339.656 404.073 340.128 404.545C350.933 415.338 361.729 426.141 372.515 436.954C373.381 437.825 373.634 437.625 374.161 436.684C384.368 418.45 387.625 399.053 383.931 378.494C383.003 373.363 381.571 368.335 379.656 363.485V363.485ZM319.494 383.684C319.705 383.489 319.949 383.279 320.176 383.052C334.76 368.475 349.348 353.902 363.942 339.334C364.603 338.675 364.531 338.333 363.955 337.693C359.434 332.652 354.361 328.134 348.832 324.226C348.011 323.646 347.586 323.658 346.856 324.391C333.445 337.85 320.014 351.288 306.563 364.707C305.704 365.566 304.868 366.451 303.975 367.274C303.499 367.712 303.527 367.973 303.98 368.423C308.925 373.332 313.857 378.254 318.777 383.187C318.972 383.381 319.126 383.642 319.494 383.684H319.494ZM320.087 311.606C310.554 309.094 300.638 308.367 290.84 309.462C279.091 310.721 267.73 314.399 257.473 320.267C256.599 320.762 256.564 321.037 257.287 321.756C265.705 330.121 274.094 338.514 282.455 346.936C283.378 347.868 283.792 347.686 284.599 346.875C296.031 335.396 307.484 323.938 318.958 312.501C319.316 312.181 319.693 311.882 320.087 311.606H320.087Z" fill="#E61C34"/>
<path d="M78.3119 166.383C78.009 165.426 78.4573 165.131 79.5875 165.039C89.6775 164.223 99.7617 163.335 109.848 162.468C112.752 162.218 115.658 161.975 118.562 161.713C119.004 161.661 119.449 161.786 119.8 162.06C123.514 164.804 127.237 167.536 130.968 170.256C131.522 170.657 131.563 170.923 131.147 171.479C128.695 174.754 126.259 178.042 123.884 181.373C123.368 182.095 123.05 181.954 122.479 181.523C120.345 179.913 118.173 178.353 116.032 176.752C115.802 176.558 115.537 176.412 115.251 176.321C114.964 176.23 114.663 176.196 114.364 176.222C107.184 176.854 100.003 177.472 92.8204 178.075C88.6648 178.431 84.5083 178.776 80.3551 179.157C79.6439 179.222 79.361 179.078 79.303 178.293C79.0138 174.376 78.6584 170.464 78.3119 166.383Z" fill="#E61C34"/>
<path d="M256 29.3622C308.285 29.3998 358.95 47.5088 399.413 80.6219C439.877 113.735 467.65 159.816 478.03 211.061C488.41 262.306 480.758 315.563 456.37 361.812C431.982 408.061 392.358 444.459 344.209 464.84C288.83 488.184 226.449 488.583 170.776 465.951C115.102 443.319 70.6937 399.507 47.3102 344.146C23.9268 288.784 23.4823 226.403 46.0744 170.713C68.6665 115.024 112.446 70.5837 167.791 47.1605C195.697 35.3536 225.699 29.3 256 29.3622M256 0.000212122C114.615 0.000212122 0 114.615 0 256C0 397.385 114.615 512 256 512C397.385 512 512 397.385 512 256C512 114.615 397.385 0 256 0V0.000212122Z" fill="#E61C34"/>
</svg>
