<svg width="196" height="196" viewBox="0 0 196 196" fill="none" xmlns="http://www.w3.org/2000/svg">
<path d="M135.871 12.835C138.166 13.12 140.4 13.7672 142.492 14.7525C147.2 16.9271 150.804 20.3012 153.384 24.7942C156.617 30.4227 159.861 36.0448 163.117 41.6604C163.151 41.7285 163.18 41.7988 163.205 41.8707C163.341 43.8831 163.365 45.9015 163.279 47.9166C162.764 58.0752 159.465 67.2315 153.291 75.3211C146.709 83.914 137.463 90.0803 127 92.8535C116.538 95.6266 105.451 94.8499 95.4776 90.645C90.4451 88.5378 85.8127 85.5803 81.7833 81.9019C81.4738 81.6206 81.3351 81.6529 81.0593 81.9292C73.7384 89.2645 66.4145 96.5966 59.0874 103.926C58.7491 104.265 58.5903 104.245 58.267 103.918C55.7387 101.356 53.1465 98.8566 50.6569 96.2584C47.3062 92.7616 45.3208 88.5688 44.8773 83.7428C44.1333 75.6459 47.0562 69.0886 53.4439 64.0735C53.7267 63.8514 53.7484 63.7476 53.4862 63.4942C52.2704 62.3191 51.0727 61.1251 49.8752 59.9313C49.714 59.7651 49.5121 59.6439 49.2896 59.5798C44.7962 58.2693 40.3068 56.9451 35.8079 55.6538C35.3321 55.5172 35.2991 55.3605 35.4346 54.9322C35.8737 53.5433 36.2731 52.1415 36.6677 50.739C36.7542 50.4315 36.8321 50.3152 37.193 50.4218C42.187 51.8974 47.1845 53.3611 52.1856 54.8131C52.3908 54.8821 52.5744 55.0037 52.718 55.1658C54.6331 57.0681 56.5481 58.9706 58.463 60.8732C58.5339 60.9697 58.6351 61.0397 58.7504 61.0719C58.8657 61.104 58.9885 61.0965 59.0991 61.0506C67.6729 58.3174 75.2258 60.0496 81.7578 66.2471C82.0809 66.5549 82.2244 66.5115 82.508 66.2278C98.7615 49.9658 115.02 33.7084 131.282 17.4555C132.687 16.0516 134.092 14.649 135.499 13.2477C135.63 13.117 135.747 12.9729 135.871 12.835ZM114.401 78.3419C117.148 78.3536 119.886 78.012 122.546 77.3254C132.147 74.7505 139.249 69.0276 143.758 60.1862C146.596 54.6236 147.614 48.6704 147.009 42.4494C146.567 37.8495 145.147 33.3971 142.844 29.3907C142.661 29.07 142.568 29.0139 142.278 29.3042C127.563 44.0287 112.841 58.7462 98.1122 73.4566C97.8405 73.728 97.8736 73.8101 98.1906 73.9911C103.125 76.8238 108.711 78.3232 114.401 78.3419V78.3419ZM55.4983 81.8508C55.5369 84.17 56.4554 86.6221 58.3234 88.7139C58.5744 88.9949 58.7178 89.0638 59.0312 88.749C63.9105 83.8473 68.8011 78.957 73.7031 74.078C73.9839 73.7983 73.9748 73.6569 73.686 73.4021C71.2938 71.2914 68.5177 70.32 65.3366 70.6199C59.7491 71.1466 55.5029 75.8069 55.4983 81.8508Z" fill="#E61C34"/>
<path d="M163.684 153.932C161.893 157.046 160.113 160.166 158.306 163.27C156.367 166.604 154.587 170.038 152.467 173.257C148.636 179.075 143.195 182.516 136.338 183.723C136.292 183.727 136.246 183.726 136.2 183.721C135.689 183.202 135.181 182.679 134.666 182.164C114.787 162.29 94.9057 142.419 75.0212 122.552C74.6888 122.22 74.6526 122.051 75.0106 121.705C77.6894 119.121 80.188 116.35 83.017 113.923C89.6909 108.144 97.8231 104.307 106.527 102.832C110.349 102.152 114.24 101.947 118.112 102.222C129.148 103.03 138.874 107.032 147.186 114.353C156.866 122.872 162.766 134.886 163.589 147.754C163.709 149.63 163.691 151.505 163.643 153.382C163.61 153.566 163.624 153.755 163.684 153.932V153.932ZM145.337 139.147C145.292 139.17 145.25 139.197 145.209 139.228C140.185 144.248 135.16 149.267 130.132 154.285C129.848 154.568 130.025 154.684 130.205 154.865C134.342 158.997 138.474 163.132 142.603 167.271C142.935 167.605 143.032 167.528 143.233 167.168C147.141 160.188 148.388 152.762 146.974 144.892C146.618 142.928 146.07 141.003 145.337 139.147V139.147ZM122.306 146.879C122.387 146.804 122.48 146.724 122.567 146.637C128.15 141.057 133.735 135.478 139.321 129.901C139.575 129.649 139.547 129.518 139.327 129.273C137.596 127.343 135.654 125.614 133.537 124.118C133.223 123.896 133.06 123.9 132.781 124.181C127.647 129.333 122.505 134.478 117.356 139.614C117.027 139.943 116.707 140.282 116.365 140.597C116.183 140.765 116.194 140.865 116.367 141.037C118.26 142.916 120.148 144.8 122.032 146.689C122.106 146.763 122.165 146.863 122.306 146.879H122.306ZM122.533 119.287C118.884 118.325 115.088 118.047 111.337 118.466C106.839 118.948 102.49 120.356 98.5639 122.602C98.2294 122.792 98.2159 122.897 98.4927 123.172C101.715 126.374 104.927 129.587 108.127 132.811C108.48 133.168 108.639 133.098 108.948 132.788C113.324 128.394 117.709 124.008 122.101 119.629C122.238 119.507 122.383 119.392 122.533 119.287H122.533Z" fill="#E61C34"/>
<path d="M29.9788 63.6934C29.8628 63.3271 30.0344 63.2141 30.4671 63.1791C34.3297 62.8665 38.19 62.5265 42.051 62.1946C43.163 62.099 44.2752 62.0061 45.3868 61.9057C45.5561 61.886 45.7264 61.9338 45.8608 62.0387C47.2826 63.0891 48.7078 64.1349 50.1364 65.176C50.3484 65.3298 50.3639 65.4313 50.2046 65.6442C49.2661 66.898 48.3336 68.1567 47.4242 69.4317C47.2269 69.7083 47.1051 69.6544 46.8864 69.4894C46.0694 68.8731 45.2381 68.2757 44.4185 67.6628C44.3306 67.5886 44.229 67.5326 44.1194 67.4978C44.0098 67.463 43.8945 67.4502 43.7799 67.46C41.0313 67.702 38.2823 67.9385 35.5328 68.1694C33.942 68.3055 32.3508 68.4376 30.7609 68.5835C30.4887 68.6085 30.3804 68.5531 30.3582 68.2529C30.2475 66.7533 30.1114 65.2556 29.9788 63.6934Z" fill="#E61C34"/>
<path d="M98 11.2402C118.015 11.2546 137.411 18.187 152.9 30.8631C168.39 43.5392 179.022 61.1797 182.996 80.7968C186.969 100.414 184.04 120.801 174.704 138.506C165.368 156.211 150.2 170.144 131.767 177.946C110.568 186.883 86.6874 187.036 65.375 178.372C44.0626 169.708 27.0624 152.936 18.111 131.743C9.15948 110.55 8.98931 86.6697 17.6379 65.3512C26.2864 44.0326 43.0459 27.0203 64.2326 18.0536C74.9154 13.5338 86.4004 11.2164 98 11.2402M98 8.12028e-05C43.8761 8.12028e-05 0 43.8762 0 98.0001C0 152.124 43.8761 196 98 196C152.124 196 196 152.124 196 98C196 43.8761 152.124 0 98 0V8.12028e-05Z" fill="#E61C34"/>
</svg>
