<svg width="144" height="144" viewBox="0 0 144 144" fill="none" xmlns="http://www.w3.org/2000/svg">
<path d="M99.8235 9.42969C101.509 9.63908 103.151 10.1146 104.688 10.8385C108.147 12.4362 110.794 14.9151 112.69 18.216C115.066 22.3513 117.449 26.4818 119.841 30.6076C119.866 30.6576 119.887 30.7092 119.906 30.7621C120.005 32.2406 120.023 33.7234 119.96 35.2039C119.582 42.6674 117.158 49.3945 112.622 55.3379C107.786 61.651 100.993 66.1814 93.3063 68.2188C85.6196 70.2562 77.4742 69.6855 70.1467 66.5962C66.4494 65.0481 63.046 62.8752 60.0856 60.1727C59.8582 59.9661 59.7563 59.9898 59.5537 60.1928C54.1751 65.582 48.7942 70.9689 43.4111 76.3534C43.1625 76.6027 43.0459 76.5884 42.8083 76.3478C40.9508 74.4659 39.0464 72.6293 37.2172 70.7204C34.7555 68.1513 33.2968 65.0709 32.971 61.5252C32.4244 55.5765 34.5718 50.7589 39.2648 47.0743C39.4726 46.9111 39.4885 46.8349 39.2959 46.6487C38.4027 45.7854 37.5228 44.9082 36.6429 44.0311C36.5245 43.909 36.3762 43.82 36.2127 43.7729C32.9114 42.81 29.6131 41.8371 26.3078 40.8884C25.9582 40.7881 25.9339 40.6729 26.0335 40.3582C26.3561 39.3378 26.6495 38.3079 26.9395 37.2775C27.003 37.0517 27.0603 36.9662 27.3254 37.0445C30.9945 38.1286 34.6661 39.204 38.3403 40.2707C38.4911 40.3214 38.626 40.4108 38.7315 40.5299C40.1385 41.9275 41.5455 43.3253 42.9523 44.7231C43.0044 44.794 43.0787 44.8454 43.1635 44.869C43.2482 44.8927 43.3384 44.8872 43.4197 44.8534C49.7188 42.8454 55.2679 44.118 60.0669 48.6713C60.3043 48.8974 60.4097 48.8655 60.618 48.6571C72.5594 36.7095 84.5041 24.7653 96.4522 12.8244C97.484 11.7929 98.5167 10.7624 99.5503 9.73293C99.6465 9.6369 99.7327 9.531 99.8235 9.42969ZM84.0493 57.5572C86.0679 57.5658 88.0793 57.3148 90.0339 56.8104C97.0875 54.9187 102.305 50.7141 105.618 44.2183C107.703 40.1315 108.451 35.7578 108.006 31.1872C107.682 27.8077 106.638 24.5366 104.946 21.5931C104.812 21.3575 104.744 21.3163 104.531 21.5295C93.7197 32.3475 82.9036 43.1604 72.0823 53.968C71.8828 54.1674 71.907 54.2277 72.1399 54.3607C75.765 56.4419 79.8693 57.5435 84.0493 57.5572V57.5572ZM40.7742 60.1352C40.8025 61.8391 41.4773 63.6406 42.8498 65.1775C43.0342 65.3839 43.1396 65.4346 43.3698 65.2033C46.9545 61.602 50.5477 58.0091 54.1492 54.4246C54.3555 54.219 54.3488 54.1152 54.1366 53.928C52.379 52.3773 50.3395 51.6636 48.0024 51.8839C43.8972 52.2709 40.7776 55.6948 40.7742 60.1352Z" fill="#E61C34"/>
<path d="M120.258 113.093C118.942 115.38 117.634 117.673 116.307 119.954C114.882 122.403 113.574 124.926 112.017 127.291C109.202 131.566 105.205 134.094 100.167 134.98C100.133 134.983 100.099 134.983 100.066 134.979C99.69 134.597 99.3169 134.213 98.9383 133.835C84.3336 119.234 69.7267 104.635 55.1177 90.038C54.8735 89.7941 54.8469 89.6699 55.1098 89.4162C57.0779 87.5178 58.9137 85.4816 60.9921 83.6984C65.8954 79.4525 71.87 76.6341 78.2649 75.5501C81.0726 75.0503 83.9313 74.8997 86.7759 75.1015C94.8841 75.6956 102.03 78.6356 108.136 84.0147C115.248 90.2731 119.583 99.1 120.188 108.554C120.276 109.933 120.263 111.31 120.227 112.689C120.203 112.824 120.214 112.963 120.258 113.093V113.093ZM106.778 102.23C106.745 102.248 106.714 102.267 106.684 102.29C102.993 105.978 99.301 109.666 95.6074 113.352C95.3986 113.56 95.5283 113.646 95.661 113.778C98.7 116.814 101.736 119.852 104.77 122.893C105.013 123.138 105.085 123.082 105.233 122.817C108.104 117.689 109.019 112.234 107.981 106.452C107.72 105.008 107.317 103.594 106.778 102.23V102.23ZM89.8577 107.911C89.9171 107.856 89.9857 107.797 90.0494 107.733C94.1512 103.634 98.2543 99.5349 102.359 95.4377C102.545 95.2522 102.524 95.1561 102.362 94.976C101.091 93.5583 99.6641 92.2878 98.109 91.1886C97.8781 91.0254 97.7586 91.0287 97.5532 91.2349C93.7815 95.0202 90.0041 98.7999 86.221 102.574C85.9793 102.816 85.7442 103.064 85.493 103.296C85.3592 103.419 85.3671 103.492 85.4945 103.619C86.8851 105 88.2723 106.384 89.6562 107.771C89.7109 107.826 89.7541 107.899 89.8576 107.911H89.8577ZM90.0245 87.6393C87.3433 86.9326 84.5544 86.7282 81.7987 87.0363C78.4943 87.3902 75.299 88.4248 72.4143 90.075C72.1685 90.2142 72.1586 90.2917 72.3621 90.4938C74.7296 92.8464 77.089 95.2071 79.4405 97.5758C79.7 97.8379 79.8165 97.7866 80.0435 97.5587C83.2588 94.3303 86.4799 91.1077 89.707 87.8909C89.8078 87.8009 89.9138 87.7168 90.0245 87.6393H90.0245Z" fill="#E61C34"/>
<path d="M22.0252 46.7951C21.94 46.526 22.0661 46.443 22.384 46.4173C25.2218 46.1876 28.0579 45.9378 30.8946 45.694C31.7116 45.6237 32.5287 45.5554 33.3454 45.4817C33.4698 45.4672 33.5949 45.5023 33.6936 45.5794C34.7382 46.3511 35.7853 47.1195 36.8349 47.8844C36.9906 47.9974 37.002 48.0719 36.885 48.2283C36.1955 49.1495 35.5104 50.0743 34.8422 51.011C34.6973 51.2142 34.6078 51.1746 34.4471 51.0534C33.8469 50.6006 33.2361 50.1617 32.634 49.7114C32.5694 49.6569 32.4947 49.6157 32.4142 49.5902C32.3337 49.5646 32.249 49.5552 32.1648 49.5624C30.1454 49.7402 28.1257 49.9139 26.1057 50.0836C24.937 50.1836 23.7679 50.2806 22.5998 50.3879C22.3998 50.4062 22.3202 50.3655 22.3039 50.145C22.2226 49.0432 22.1226 47.9429 22.0252 46.7951Z" fill="#E61C34"/>
<path d="M72 8.25813C86.7052 8.2687 100.955 13.3619 112.335 22.6749C123.715 31.988 131.527 44.9484 134.446 59.3609C137.365 73.7734 135.213 88.752 128.354 101.76C121.495 114.767 110.351 125.004 96.8087 130.736C81.2335 137.302 63.6887 137.414 48.0306 131.049C32.3726 124.683 19.8826 112.361 13.306 96.7909C6.72942 81.2204 6.60439 63.6757 12.9584 48.0131C19.3124 32.3505 31.6255 19.8517 47.1913 13.2639C55.0399 9.9432 63.4779 8.24063 72 8.25813M72 5.96592e-05C32.2355 5.96592e-05 0 32.2356 0 72.0001C0 111.765 32.2355 144 72 144C111.764 144 144 111.764 144 72C144 32.2355 111.764 0 72 0V5.96592e-05Z" fill="#E61C34"/>
</svg>
