<svg width="152" height="152" viewBox="0 0 152 152" fill="none" xmlns="http://www.w3.org/2000/svg">
<path d="M105.369 9.95361C107.149 10.1746 108.882 10.6766 110.504 11.4407C114.155 13.1271 116.95 15.7438 118.951 19.2281C121.458 23.5931 123.974 27.953 126.499 32.308C126.525 32.3609 126.548 32.4153 126.567 32.4711C126.672 34.0318 126.691 35.597 126.624 37.1598C126.225 45.0379 123.666 52.1387 118.878 58.4123C113.774 65.0762 106.604 69.8582 98.49 72.0088C90.3763 74.1594 81.7783 73.557 74.0438 70.2961C70.141 68.6619 66.5485 66.3683 63.4237 63.5157C63.1837 63.2976 63.0761 63.3227 62.8622 63.5369C57.1848 69.2255 51.505 74.9116 45.8228 80.5954C45.5605 80.8584 45.4373 80.8434 45.1866 80.5894C43.2258 78.6029 41.2156 76.6643 39.2848 74.6494C36.6863 71.9376 35.1466 68.686 34.8027 64.9434C34.2257 58.6642 36.4925 53.5789 41.4462 49.6896C41.6656 49.5174 41.6824 49.4369 41.479 49.2404C40.5362 48.329 39.6074 47.4031 38.6786 46.4773C38.5536 46.3484 38.3971 46.2545 38.2245 46.2047C34.7398 45.1884 31.2582 44.1615 27.7693 43.16C27.4003 43.0541 27.3747 42.9326 27.4798 42.6004C27.8204 41.5233 28.1301 40.4362 28.4361 39.3486C28.5032 39.1101 28.5636 39.0199 28.8434 39.1026C32.7164 40.2469 36.592 41.3821 40.4704 42.5081C40.6295 42.5616 40.7719 42.6559 40.8832 42.7816C42.3685 44.2569 43.8536 45.7323 45.3386 47.2078C45.3935 47.2826 45.472 47.3369 45.5614 47.3618C45.6509 47.3868 45.7461 47.3809 45.8319 47.3453C52.481 45.2257 58.3383 46.569 63.4039 51.3753C63.6545 51.614 63.7658 51.5803 63.9857 51.3603C76.5905 38.749 89.1988 26.1412 101.811 13.5369C102.9 12.4482 103.99 11.3604 105.081 10.2737C105.182 10.1723 105.273 10.0606 105.369 9.95361ZM88.7187 60.7549C90.8495 60.764 92.9726 60.499 95.0358 59.9666C102.481 57.9698 107.989 53.5316 111.486 46.675C113.686 42.3611 114.476 37.7443 114.007 32.9199C113.664 29.3526 112.563 25.8998 110.777 22.7928C110.635 22.544 110.563 22.5005 110.338 22.7257C98.9264 34.1447 87.5094 45.5582 76.0869 56.9663C75.8763 57.1768 75.9019 57.2405 76.1477 57.3808C79.9741 59.5776 84.3065 60.7404 88.7187 60.7549V60.7549ZM43.0395 63.4761C43.0693 65.2747 43.7816 67.1763 45.2304 68.7985C45.425 69.0164 45.5362 69.0699 45.7792 68.8257C49.5631 65.0244 53.3559 61.2319 57.1575 57.4482C57.3752 57.2313 57.3681 57.1217 57.1442 56.9241C55.289 55.2872 53.1361 54.5338 50.6692 54.7664C46.336 55.1749 43.043 58.789 43.0395 63.4761Z" fill="#E61C34"/>
<path d="M126.939 119.376C125.549 121.79 124.169 124.21 122.768 126.618C121.264 129.203 119.884 131.866 118.24 134.363C115.269 138.875 111.049 141.543 105.732 142.479C105.696 142.482 105.66 142.482 105.625 142.477C105.228 142.075 104.835 141.669 104.435 141.27C89.0188 125.858 73.6004 110.448 58.1797 95.0401C57.922 94.7827 57.8939 94.6516 58.1715 94.3838C60.2489 92.3799 62.1866 90.2306 64.3805 88.3483C69.5562 83.8666 75.8628 80.8915 82.6129 79.7473C85.5766 79.2198 88.5941 79.0608 91.5968 79.2738C100.155 79.9009 107.698 83.0043 114.144 88.6822C121.651 95.2883 126.227 104.606 126.865 114.585C126.958 116.04 126.944 117.494 126.907 118.949C126.881 119.092 126.892 119.239 126.939 119.376V119.376ZM112.71 107.91C112.676 107.928 112.643 107.949 112.611 107.972C108.715 111.866 104.818 115.758 100.919 119.649C100.698 119.869 100.835 119.959 100.976 120.099C104.183 123.304 107.388 126.511 110.59 129.721C110.848 129.979 110.923 129.92 111.079 129.641C114.109 124.227 115.076 118.469 113.98 112.365C113.704 110.842 113.279 109.35 112.71 107.91V107.91ZM94.8498 113.906C94.9125 113.848 94.9848 113.786 95.0522 113.719C99.3818 109.391 103.713 105.065 108.045 100.74C108.242 100.544 108.22 100.443 108.049 100.252C106.707 98.756 105.201 97.4149 103.56 96.2546C103.316 96.0824 103.19 96.0859 102.973 96.3034C98.9915 100.299 95.0043 104.289 91.011 108.272C90.7559 108.527 90.5077 108.79 90.2425 109.034C90.1013 109.164 90.1097 109.242 90.2441 109.375C91.712 110.833 93.1763 112.294 94.6371 113.759C94.6948 113.816 94.7404 113.894 94.8497 113.906H94.8498ZM95.0259 92.5082C92.1956 91.7622 89.2518 91.5464 86.3431 91.8717C82.855 92.2452 79.4822 93.3373 76.4373 95.0792C76.1779 95.2261 76.1674 95.3079 76.3821 95.5213C78.8812 98.0046 81.3717 100.496 83.8538 102.997C84.1277 103.273 84.2508 103.219 84.4903 102.979C87.8842 99.5708 91.2844 96.1692 94.6907 92.7738C94.7971 92.6787 94.909 92.59 95.0259 92.5082H95.0259Z" fill="#E61C34"/>
<path d="M23.2488 49.3949C23.1589 49.1108 23.292 49.0232 23.6275 48.996C26.623 48.7536 29.6167 48.4899 32.6109 48.2325C33.4733 48.1584 34.3359 48.0863 35.1979 48.0085C35.3292 47.9932 35.4613 48.0302 35.5654 48.1116C36.6681 48.9262 37.7733 49.7372 38.8812 50.5446C39.0457 50.6639 39.0577 50.7426 38.9341 50.9077C38.2063 51.8801 37.4832 52.8562 36.7779 53.845C36.6249 54.0595 36.5305 54.0177 36.3608 53.8897C35.7272 53.4117 35.0826 52.9485 34.447 52.4731C34.3788 52.4157 34.3 52.3722 34.215 52.3452C34.13 52.3182 34.0406 52.3083 33.9517 52.3159C31.8202 52.5036 29.6883 52.687 27.556 52.866C26.3223 52.9716 25.0884 53.074 23.8554 53.1872C23.6442 53.2066 23.5602 53.1636 23.543 52.9308C23.4572 51.7679 23.3517 50.6064 23.2488 49.3949Z" fill="#E61C34"/>
<path d="M76 8.71692C91.5222 8.72807 106.563 14.1042 118.576 23.9346C130.588 33.7651 138.834 47.4455 141.915 62.6587C144.997 77.872 142.725 93.6827 135.485 107.413C128.245 121.143 116.481 131.949 102.187 137.999C85.7465 144.929 67.227 145.048 50.699 138.329C34.171 131.61 20.9872 118.604 14.0452 102.168C7.10327 85.7327 6.9713 67.2133 13.6783 50.6805C20.3854 34.1477 33.3825 20.9545 49.813 14.0008C58.0976 10.4956 67.0044 8.69844 76 8.71692M76 6.29736e-05C34.0264 6.29736e-05 0 34.0264 0 76.0001C0 117.974 34.0264 152 76 152C117.974 152 152 117.974 152 76C152 34.0264 117.974 0 76 0V6.29736e-05Z" fill="#E61C34"/>
</svg>
