<svg width="500" height="500" viewBox="0 0 500 500" fill="none" xmlns="http://www.w3.org/2000/svg">
<path fill-rule="evenodd" clip-rule="evenodd" d="M202.904 226.83L158.778 270.952L143.995 256.169C127.604 239.78 127.604 213.207 143.995 196.817C145.661 195.152 147.428 193.657 149.282 192.33L141.193 184.309L113.367 176.165L116.306 166.133L146.672 175.021L158.942 187.184C173.872 181.6 191.344 184.811 203.352 196.817L204.286 197.75L323.046 79L334.137 90.0873C371.151 127.1 371.151 187.11 334.137 224.122C298.043 260.21 240.09 261.112 202.904 226.83ZM234.733 211.654L321.667 124.73C336.135 149.069 332.898 181.008 311.958 201.948C291.018 222.887 259.074 226.123 234.733 211.654ZM157.07 213.529C150.598 221.793 151.168 233.777 158.778 241.386L188.566 211.6C180.957 203.991 168.973 203.421 160.706 209.892C160.037 210.415 159.393 210.985 158.778 211.6C158.162 212.216 157.592 212.86 157.07 213.529Z" fill="#FF625E"/>
<path fill-rule="evenodd" clip-rule="evenodd" d="M189.703 305.54L200.791 294.453C237.808 257.44 297.823 257.44 334.84 294.453C371.857 331.466 371.857 391.476 334.84 428.488L323.752 439.575L189.703 305.54ZM270.333 341.812L282.204 353.685L315.845 320.049C314.834 318.879 313.774 317.738 312.661 316.627C309.729 313.697 306.584 311.112 303.271 308.875L270.333 341.812ZM322.37 393.845L296.99 368.468L326.954 338.508C333.92 356.479 332.394 376.986 322.37 393.845ZM255.547 327.029L235.436 306.921C249.834 298.365 266.887 296 282.75 299.827L255.547 327.029Z" fill="#FF625E"/>
<path d="M133.506 188.609L103 191.22L103.892 201.635L130.479 199.359L136.508 203.788L142.697 195.366L133.506 188.609Z" fill="#FF625E"/>
</svg>
