<svg width="128" height="128" viewBox="0 0 128 128" fill="none" xmlns="http://www.w3.org/2000/svg">
<path d="M106.896 100.527C105.726 102.56 104.564 104.598 103.384 106.626C102.118 108.803 100.955 111.045 99.5706 113.148C97.0689 116.947 93.5154 119.194 89.0376 119.983C89.0075 119.985 88.9773 119.984 88.9473 119.981C88.6135 119.642 88.2819 119.3 87.9454 118.964C74.9634 105.985 61.9795 93.0086 48.9937 80.0338C48.7766 79.8169 48.7529 79.7065 48.9867 79.4811C50.7361 77.7935 52.3679 75.9836 54.2154 74.3985C58.5739 70.6244 63.8847 68.1191 69.569 67.1556C72.0647 66.7114 74.6058 66.5774 77.1344 66.7569C84.3416 67.285 90.6935 69.8983 96.1214 74.6797C102.443 80.2427 106.296 88.0889 106.834 96.4926C106.912 97.7178 106.9 98.9423 106.869 100.168C106.847 100.288 106.857 100.412 106.896 100.527V100.527ZM94.9142 90.8712C94.885 90.8867 94.8571 90.9044 94.8306 90.9241C91.5497 94.2029 88.2677 97.4807 84.9845 100.757C84.7989 100.942 84.9142 101.018 85.0322 101.136C87.7335 103.835 90.4324 106.535 93.1289 109.238C93.3455 109.456 93.4088 109.406 93.5404 109.171C96.0922 104.612 96.9064 99.7632 95.983 94.6235C95.7509 93.3407 95.3929 92.0838 94.9142 90.8712V90.8712ZM79.8737 95.921C79.9265 95.8722 79.9874 95.8197 80.0441 95.763C83.6902 92.1187 87.3373 88.4755 90.9857 84.8334C91.151 84.6686 91.1329 84.5832 90.989 84.4231C89.8587 83.1629 88.5905 82.0336 87.2082 81.0565C87.0029 80.9115 86.8967 80.9144 86.7141 81.0976C83.3615 84.4624 80.0038 87.8221 76.6411 91.1767C76.4262 91.3915 76.2172 91.6128 75.9939 91.8184C75.875 91.9279 75.8821 91.9932 75.9952 92.1056C77.2314 93.333 78.4645 94.5634 79.6946 95.7968C79.7432 95.8453 79.7816 95.9105 79.8736 95.921H79.8737ZM80.022 77.9016C77.6386 77.2734 75.1596 77.0917 72.7102 77.3656C69.7729 77.6801 66.9326 78.5998 64.3684 80.0666C64.15 80.1904 64.1412 80.2592 64.322 80.4389C66.4264 82.5301 68.5237 84.6285 70.6139 86.734C70.8446 86.967 70.9482 86.9214 71.1499 86.7188C74.008 83.8491 76.8712 80.9845 79.7397 78.1252C79.8293 78.0452 79.9236 77.9705 80.022 77.9016H80.022Z" fill="#E61C34"/>
<path d="M88.7319 8.38202C90.2303 8.56815 91.6898 8.99082 93.0558 9.63427C96.1306 11.0545 98.4838 13.258 100.169 16.1921C102.28 19.8679 104.399 23.5394 106.525 27.2068C106.547 27.2513 106.566 27.2971 106.583 27.3441C106.671 28.6583 106.687 29.9765 106.631 31.2925C106.295 37.9267 104.14 43.9063 100.108 49.1893C95.8099 54.801 89.7714 58.828 82.9388 60.639C76.1062 62.45 68.8658 61.9428 62.3525 59.1967C59.0659 57.8206 56.0407 55.8891 53.4093 53.4869C53.2071 53.3032 53.1165 53.3244 52.9365 53.5048C48.1555 58.2952 43.3725 63.0835 38.5875 67.8698C38.3665 68.0913 38.2628 68.0787 38.0517 67.8648C36.4005 66.192 34.7077 64.5594 33.0818 62.8626C30.8936 60.579 29.597 57.8409 29.3074 54.6892C28.8215 49.4014 30.7304 45.1191 34.9019 41.8439C35.0866 41.6989 35.1008 41.6311 34.9295 41.4656C34.1356 40.6982 33.3534 39.9185 32.5713 39.1388C32.466 39.0303 32.3342 38.9511 32.1889 38.9093C29.2544 38.0534 26.3226 37.1886 23.3845 36.3453C23.0738 36.2561 23.0522 36.1538 23.1407 35.8741C23.4275 34.967 23.6883 34.0516 23.946 33.1357C24.0025 32.9349 24.0534 32.8589 24.2891 32.9285C27.5505 33.8922 30.8142 34.8481 34.0801 35.7963C34.2142 35.8414 34.3341 35.9208 34.4278 36.0267C35.6785 37.269 36.9292 38.5114 38.1797 39.7539C38.226 39.817 38.292 39.8627 38.3674 39.8837C38.4427 39.9047 38.5229 39.8998 38.5951 39.8698C44.1943 38.0848 49.1268 39.2161 53.3926 43.2634C53.6036 43.4644 53.6973 43.4361 53.8825 43.2508C64.4971 32.6307 75.1146 22.0136 85.7351 11.3995C86.6523 10.4827 87.5702 9.5667 88.489 8.65156C88.5745 8.56621 88.6511 8.47207 88.7319 8.38202ZM74.7103 51.162C76.5047 51.1697 78.2925 50.9466 80.0299 50.4982C86.2998 48.8167 90.9376 45.0792 93.8828 39.3053C95.7358 35.6725 96.4006 31.7847 96.0054 27.7221C95.7168 24.718 94.7894 21.8104 93.2853 19.194C93.1659 18.9845 93.1055 18.9479 92.916 19.1374C83.3063 28.7534 73.6919 38.3648 64.073 47.9717C63.8956 48.1489 63.9172 48.2025 64.1242 48.3207C67.3465 50.1706 70.9948 51.1499 74.7103 51.162ZM36.2436 53.4536C36.2687 54.9682 36.8686 56.5695 38.0885 57.9356C38.2524 58.1191 38.3461 58.1641 38.5508 57.9585C41.7372 54.7574 44.9311 51.5638 48.1324 48.3775C48.3158 48.1948 48.3098 48.1025 48.1213 47.9361C46.559 46.5577 44.746 45.9232 42.6686 46.1191C39.0196 46.4631 36.2466 49.5065 36.2436 53.4536Z" fill="#E61C34"/>
<path d="M19.5778 41.5956C19.5021 41.3564 19.6142 41.2826 19.8968 41.2597C22.4193 41.0556 24.9403 40.8336 27.4618 40.6168C28.188 40.5544 28.9143 40.4937 29.6403 40.4282C29.7508 40.4153 29.862 40.4465 29.9498 40.515C30.8783 41.201 31.809 41.8839 32.742 42.5638C32.8805 42.6643 32.8906 42.7306 32.7865 42.8696C32.1736 43.6884 31.5647 44.5104 30.9708 45.3431C30.8419 45.5237 30.7624 45.4885 30.6196 45.3807C30.086 44.9783 29.5431 44.5881 29.0079 44.1878C28.9505 44.1394 28.8841 44.1028 28.8126 44.0801C28.741 44.0574 28.6657 44.049 28.5908 44.0555C26.7958 44.2135 25.0006 44.3679 23.205 44.5187C22.1661 44.6076 21.127 44.6939 20.0887 44.7892C19.9108 44.8055 19.8401 44.7693 19.8256 44.5733C19.7533 43.5939 19.6645 42.6159 19.5778 41.5956Z" fill="#E61C34"/>
<path d="M64 7.34056C77.0713 7.34995 89.7376 11.8772 99.8534 20.1555C109.969 28.4337 116.913 39.9541 119.508 52.7653C122.103 65.5764 120.19 78.8907 114.093 90.453C107.996 102.015 98.0895 111.115 86.0522 116.21C72.2075 122.046 56.6122 122.146 42.6939 116.488C28.7756 110.83 17.6734 99.8768 11.8276 86.0364C5.9817 72.1959 5.87057 56.6006 11.5186 42.6783C17.1666 28.756 28.1116 17.6459 41.9478 11.7901C48.9243 8.8384 56.4248 7.325 64 7.34056M64 5.30304e-05C28.6538 5.30304e-05 0 28.6538 0 64.0001C0 99.3463 28.6538 128 64 128C99.3462 128 128 99.3462 128 64C128 28.6538 99.3462 0 64 0V5.30304e-05Z" fill="#E61C34"/>
</svg>
