<svg width="5064" height="1689" viewBox="0 0 5064 1689" fill="none" xmlns="http://www.w3.org/2000/svg">
<path d="M2369.93 871.378V1313.87C2371.39 1430.15 2409.18 1521.72 2483.31 1588.58C2557.44 1655.44 2658.94 1688.87 2787.82 1688.87C2873.09 1688.87 2946.97 1673.85 3009.48 1643.81C3071.98 1613.77 3119.94 1570.17 3153.37 1513C3186.8 1455.34 3203.52 1387.27 3203.52 1308.78V616.188H2948.43V1307.33C2948.43 1372.74 2934.86 1419.97 2907.73 1449.04C2880.6 1478.11 2840.63 1492.65 2787.82 1492.65C2683.16 1492.65 2629.38 1434.75 2626.48 1318.96V1127.92L2369.93 871.378Z" fill="#E61C34"/>
<path fill-rule="evenodd" clip-rule="evenodd" d="M0 616.188V1674.34H348.114C439.684 1673.85 522.534 1652.05 596.662 1608.93C671.276 1565.32 728.931 1505.25 769.629 1428.69C810.812 1351.66 831.403 1264.69 831.403 1167.79V1119.1C830.919 1023.17 809.6 936.685 767.449 859.649C725.782 782.129 667.642 722.293 593.029 680.142C518.416 637.506 434.355 616.188 340.846 616.188H0ZM255.09 1478.11V813.137H340.846C415.944 813.137 473.115 839.058 512.359 890.899C551.604 942.741 571.226 1019.78 571.226 1122.01V1167.79C571.226 1270.51 551.604 1348.03 512.359 1400.35C473.115 1452.19 416.913 1478.11 343.753 1478.11H255.09Z" fill="#E61C34"/>
<path d="M1199.14 1471.57C1173.46 1448.32 1141.24 1436.69 1102.48 1436.69C1063.24 1436.69 1030.77 1448.32 1005.1 1471.57C979.902 1494.83 967.305 1524.14 967.305 1559.51C967.305 1594.88 979.902 1624.19 1005.1 1647.45C1030.77 1670.7 1063.24 1682.33 1102.48 1682.33C1141.24 1682.33 1173.46 1670.95 1199.14 1648.17C1224.82 1624.92 1237.66 1595.36 1237.66 1559.51C1237.66 1523.66 1224.82 1494.34 1199.14 1471.57Z" fill="#E61C34"/>
<path fill-rule="evenodd" clip-rule="evenodd" d="M1412.8 1674.34V616.188H1792.89C1929.04 616.188 2032.48 641.139 2103.22 691.043C2174.44 740.946 2210.05 813.379 2210.05 908.341C2210.05 963.09 2197.45 1009.84 2172.26 1048.6C2147.06 1087.36 2110 1115.95 2061.07 1134.36C2116.3 1148.9 2158.69 1176.03 2188.25 1215.76C2217.8 1255.49 2232.58 1303.94 2232.58 1361.11C2232.58 1464.79 2199.63 1542.79 2133.74 1595.12C2068.33 1646.96 1971.19 1673.37 1842.31 1674.34H1412.8ZM1667.89 1224.48V1478.11H1835.05C1881.07 1478.11 1916.44 1467.7 1941.15 1446.86C1965.86 1425.55 1978.22 1395.75 1978.22 1357.47C1978.22 1269.29 1934.37 1224.96 1846.67 1224.48H1667.89ZM1667.89 1057.33H1800.89C1856.61 1056.84 1896.34 1046.67 1920.08 1026.8C1943.82 1006.94 1955.69 977.625 1955.69 938.865C1955.69 894.291 1942.85 862.314 1917.17 842.934C1891.49 823.069 1850.07 813.137 1792.89 813.137H1667.89V1057.33Z" fill="#E61C34"/>
<path d="M3649.74 1478.11H4155.56V1674.34H3331.43V1539.89L3835.79 813.137H3328.52V616.188H4150.47V747.003L3649.74 1478.11Z" fill="#E61C34"/>
<path d="M5064 1478.11H4558.18L5058.91 747.003V616.188H4236.96V813.137H4744.23L4239.86 1539.89V1674.34H5064V1478.11Z" fill="#E61C34"/>
<path fill-rule="evenodd" clip-rule="evenodd" d="M2292.76 422.561L2166.64 548.682L2124.39 506.426C2077.54 459.578 2077.54 383.621 2124.39 336.772C2129.15 332.013 2134.2 327.738 2139.5 323.946L2116.38 301.018L2036.85 277.74L2045.25 249.063L2132.04 274.468L2167.11 309.237C2209.78 293.275 2259.72 302.453 2294.04 336.772L2296.71 339.438L2636.14 0L2667.84 31.6923C2773.63 137.491 2773.63 309.024 2667.84 414.822C2564.68 517.975 2399.04 520.555 2292.76 422.561ZM2383.73 379.182L2632.2 130.717C2673.55 200.287 2664.3 291.584 2604.45 351.438C2544.6 411.292 2453.3 420.54 2383.73 379.182ZM2161.76 384.541C2143.26 408.164 2144.89 442.418 2166.64 464.17L2251.78 379.029C2230.03 357.277 2195.78 355.649 2172.15 374.145C2170.24 375.641 2168.4 377.269 2166.64 379.029C2164.88 380.788 2163.25 382.63 2161.76 384.541Z" fill="#E61C34"/>
<path fill-rule="evenodd" clip-rule="evenodd" d="M2255.03 647.55L2286.72 615.858C2392.52 510.059 2564.05 510.059 2669.85 615.858C2775.65 721.656 2775.65 893.19 2669.85 998.988L2638.16 1030.68L2255.03 647.55ZM2485.48 751.231L2519.41 785.168L2615.56 689.022C2612.67 685.679 2609.64 682.417 2606.46 679.242C2598.08 670.864 2589.09 663.477 2579.62 657.082L2485.48 751.231ZM2634.21 899.963L2561.67 827.424L2647.31 741.787C2667.22 793.156 2662.86 851.772 2634.21 899.963ZM2443.22 708.975L2385.74 651.498C2426.89 627.039 2475.63 620.28 2520.97 631.22L2443.22 708.975Z" fill="#E61C34"/>
<path d="M2094.41 313.31L2007.22 320.773L2009.77 350.544L2085.76 344.039L2102.99 356.698L2120.68 332.623L2094.41 313.31Z" fill="#E61C34"/>
<mask id="mask0" mask-type="alpha" maskUnits="userSpaceOnUse" x="0" y="0" width="5064" height="1689">
<path d="M2369.93 871.378V1313.87C2371.39 1430.15 2409.18 1521.72 2483.31 1588.58C2557.44 1655.44 2658.94 1688.87 2787.82 1688.87C2873.09 1688.87 2946.97 1673.85 3009.48 1643.81C3071.98 1613.77 3119.94 1570.17 3153.37 1513C3186.8 1455.34 3203.52 1387.27 3203.52 1308.78V616.188H2948.43V1307.33C2948.43 1372.74 2934.86 1419.97 2907.73 1449.04C2880.6 1478.11 2840.63 1492.65 2787.82 1492.65C2683.16 1492.65 2629.38 1434.75 2626.48 1318.96V1127.92L2369.93 871.378Z" fill="#E61C34"/>
<path fill-rule="evenodd" clip-rule="evenodd" d="M0 616.188V1674.34H348.114C439.684 1673.85 522.534 1652.05 596.662 1608.93C671.276 1565.32 728.931 1505.25 769.629 1428.69C810.812 1351.66 831.403 1264.69 831.403 1167.79V1119.1C830.919 1023.17 809.6 936.685 767.449 859.649C725.782 782.129 667.642 722.293 593.029 680.142C518.416 637.506 434.355 616.188 340.846 616.188H0ZM255.09 1478.11V813.137H340.846C415.944 813.137 473.115 839.058 512.359 890.899C551.604 942.741 571.226 1019.78 571.226 1122.01V1167.79C571.226 1270.51 551.604 1348.03 512.359 1400.35C473.115 1452.19 416.913 1478.11 343.753 1478.11H255.09Z" fill="#E61C34"/>
<path d="M1199.14 1471.57C1173.46 1448.32 1141.24 1436.69 1102.48 1436.69C1063.24 1436.69 1030.77 1448.32 1005.1 1471.57C979.902 1494.83 967.305 1524.14 967.305 1559.51C967.305 1594.88 979.902 1624.19 1005.1 1647.45C1030.77 1670.7 1063.24 1682.33 1102.48 1682.33C1141.24 1682.33 1173.46 1670.95 1199.14 1648.17C1224.82 1624.92 1237.66 1595.36 1237.66 1559.51C1237.66 1523.66 1224.82 1494.34 1199.14 1471.57Z" fill="#E61C34"/>
<path fill-rule="evenodd" clip-rule="evenodd" d="M1412.8 1674.34V616.188H1792.89C1929.04 616.188 2032.48 641.139 2103.22 691.043C2174.44 740.946 2210.05 813.379 2210.05 908.341C2210.05 963.09 2197.45 1009.84 2172.26 1048.6C2147.06 1087.36 2110 1115.95 2061.07 1134.36C2116.3 1148.9 2158.69 1176.03 2188.25 1215.76C2217.8 1255.49 2232.58 1303.94 2232.58 1361.11C2232.58 1464.79 2199.63 1542.79 2133.74 1595.12C2068.33 1646.96 1971.19 1673.37 1842.31 1674.34H1412.8ZM1667.89 1224.48V1478.11H1835.05C1881.07 1478.11 1916.44 1467.7 1941.15 1446.86C1965.86 1425.55 1978.22 1395.75 1978.22 1357.47C1978.22 1269.29 1934.37 1224.96 1846.67 1224.48H1667.89ZM1667.89 1057.33H1800.89C1856.61 1056.84 1896.34 1046.67 1920.08 1026.8C1943.82 1006.94 1955.69 977.625 1955.69 938.865C1955.69 894.291 1942.85 862.314 1917.17 842.934C1891.49 823.069 1850.07 813.137 1792.89 813.137H1667.89V1057.33Z" fill="#E61C34"/>
<path d="M3649.74 1478.11H4155.56V1674.34H3331.43V1539.89L3835.79 813.137H3328.52V616.188H4150.47V747.003L3649.74 1478.11Z" fill="#E61C34"/>
<path d="M5064 1478.11H4558.18L5058.91 747.003V616.188H4236.96V813.137H4744.23L4239.86 1539.89V1674.34H5064V1478.11Z" fill="#E61C34"/>
<path fill-rule="evenodd" clip-rule="evenodd" d="M2292.76 422.561L2166.64 548.682L2124.39 506.426C2077.54 459.578 2077.54 383.621 2124.39 336.772C2129.15 332.013 2134.2 327.738 2139.5 323.946L2116.38 301.018L2036.85 277.74L2045.25 249.063L2132.04 274.468L2167.11 309.237C2209.78 293.275 2259.72 302.453 2294.04 336.772L2296.71 339.438L2636.14 0L2667.84 31.6923C2773.63 137.491 2773.63 309.024 2667.84 414.822C2564.68 517.975 2399.04 520.555 2292.76 422.561ZM2383.73 379.182L2632.2 130.717C2673.55 200.287 2664.3 291.584 2604.45 351.438C2544.6 411.292 2453.3 420.54 2383.73 379.182ZM2161.76 384.541C2143.26 408.164 2144.89 442.418 2166.64 464.17L2251.78 379.029C2230.03 357.277 2195.78 355.649 2172.15 374.145C2170.24 375.641 2168.4 377.269 2166.64 379.029C2164.88 380.788 2163.25 382.63 2161.76 384.541Z" fill="#E61C34"/>
<path fill-rule="evenodd" clip-rule="evenodd" d="M2255.03 647.55L2286.72 615.858C2392.52 510.059 2564.05 510.059 2669.85 615.858C2775.65 721.656 2775.65 893.19 2669.85 998.988L2638.16 1030.68L2255.03 647.55ZM2485.48 751.231L2519.41 785.168L2615.56 689.022C2612.67 685.679 2609.64 682.417 2606.46 679.242C2598.08 670.864 2589.09 663.477 2579.62 657.082L2485.48 751.231ZM2634.21 899.963L2561.67 827.424L2647.31 741.787C2667.22 793.156 2662.86 851.772 2634.21 899.963ZM2443.22 708.975L2385.74 651.498C2426.89 627.039 2475.63 620.28 2520.97 631.22L2443.22 708.975Z" fill="#E61C34"/>
<path d="M2094.41 313.31L2007.22 320.773L2009.77 350.544L2085.76 344.039L2102.99 356.698L2120.68 332.623L2094.41 313.31Z" fill="#E61C34"/>
</mask>
<g mask="url(#mask0)">
<path d="M1395.46 1914.89L1306.39 522.195L1856.99 441.224L2156.58 635.553L2747.67 1153.76L2844.83 927.047L2909.61 522.195L5128.2 441.224L5322.53 1914.89H1395.46Z" fill="black"/>
</g>
</svg>
