<svg width="4096" height="1366" viewBox="0 0 4096 1366" fill="none" xmlns="http://www.w3.org/2000/svg">
<path fill-rule="evenodd" clip-rule="evenodd" d="M0 498.35V1354.14H281.571C355.637 1353.75 422.65 1336.12 482.608 1301.24C542.959 1265.97 589.594 1217.39 622.512 1155.47C655.823 1093.17 672.478 1022.83 672.478 944.465V905.086C672.086 827.501 654.842 757.556 620.749 695.252C587.046 632.556 540.02 584.163 479.67 550.073C419.319 515.591 351.327 498.35 275.692 498.35H0ZM206.329 1195.44V657.635H275.692C336.435 657.635 382.678 678.599 414.42 720.526C446.163 762.453 462.034 824.76 462.034 907.44V944.465C462.034 1027.54 446.163 1090.24 414.42 1132.55C382.678 1174.48 337.219 1195.44 278.043 1195.44H206.329Z" fill="#FF625E"/>
<path d="M969.92 1190.15C949.149 1171.35 923.088 1161.94 891.737 1161.94C859.998 1161.94 833.735 1171.35 812.972 1190.15C792.59 1208.96 782.401 1232.67 782.401 1261.27C782.401 1289.88 792.59 1313.58 812.972 1332.4C833.735 1351.2 859.998 1360.61 891.737 1360.61C923.088 1360.61 949.149 1351.4 969.92 1332.98C990.692 1314.17 1001.08 1290.27 1001.08 1261.27C1001.08 1232.28 990.692 1208.57 969.92 1190.15Z" fill="#FF625E"/>
<path fill-rule="evenodd" clip-rule="evenodd" d="M1854.49 341.752L1752.48 443.753L1718.31 409.578C1680.41 371.689 1680.41 310.258 1718.31 272.369C1722.16 268.52 1726.24 265.062 1730.53 261.995L1711.83 243.452L1647.5 224.626L1654.29 201.433L1724.49 221.979L1752.86 250.099C1787.37 237.19 1827.77 244.613 1855.53 272.369L1857.69 274.525L2132.23 0L2157.87 25.6315C2243.44 111.198 2243.44 249.927 2157.87 335.493C2074.43 418.919 1940.46 421.005 1854.49 341.752ZM1928.07 306.668L2129.05 105.719C2162.49 161.985 2155.01 235.822 2106.6 284.23C2058.19 332.638 1984.34 340.117 1928.07 306.668ZM1748.53 311.002C1733.57 330.108 1734.89 357.811 1752.48 375.403L1821.34 306.544C1803.75 288.952 1776.05 287.636 1756.94 302.594C1755.39 303.804 1753.9 305.121 1752.48 306.544C1751.06 307.967 1749.74 309.457 1748.53 311.002Z" fill="#FF625E"/>
<path fill-rule="evenodd" clip-rule="evenodd" d="M1823.97 523.714L1849.61 498.083C1935.18 412.517 2073.92 412.517 2159.5 498.083C2245.08 583.648 2245.08 722.379 2159.5 807.944L2133.87 833.575L1823.97 523.714ZM2010.37 607.568L2037.82 635.015L2115.59 557.255C2113.25 554.552 2110.8 551.913 2108.23 549.346C2101.45 542.57 2094.18 536.595 2086.52 531.423L2010.37 607.568ZM2130.67 727.856L2072 669.19L2141.27 599.93C2157.37 641.475 2153.85 688.881 2130.67 727.856ZM1976.19 573.392L1929.7 526.907C1962.98 507.126 2002.41 501.659 2039.08 510.507L1976.19 573.392Z" fill="#FF625E"/>
<path d="M1694.06 253.394L1623.53 259.429L1625.6 283.507L1687.06 278.246L1701 288.484L1715.3 269.013L1694.06 253.394Z" fill="#FF625E"/>
<mask id="mask0_113_90" style="mask-type:alpha" maskUnits="userSpaceOnUse" x="1142" y="498" width="2954" height="868">
<path d="M1916.91 704.738V1062.61C1918.09 1156.65 1948.66 1230.71 2008.62 1284.78C2068.58 1338.86 2150.68 1365.89 2254.92 1365.89C2323.89 1365.89 2383.65 1353.75 2434.21 1329.45C2484.76 1305.16 2523.55 1269.89 2550.59 1223.66C2577.63 1177.02 2591.16 1121.97 2591.16 1058.49V498.35H2384.83V1057.32C2384.83 1110.22 2373.85 1148.42 2351.91 1171.93C2329.96 1195.44 2297.63 1207.2 2254.92 1207.2C2170.27 1207.2 2126.77 1160.37 2124.42 1066.73V912.219L1916.91 704.738Z" fill="#FF625E"/>
<path fill-rule="evenodd" clip-rule="evenodd" d="M1142.74 1354.14V498.35H1450.17C1560.3 498.35 1643.96 518.529 1701.18 558.89C1758.79 599.249 1787.59 657.83 1787.59 734.632C1787.59 778.911 1777.4 816.721 1757.03 848.068C1736.64 879.416 1706.67 902.538 1667.09 917.428C1711.76 929.187 1746.05 951.129 1769.96 983.261C1793.86 1015.39 1805.82 1054.58 1805.82 1100.81C1805.82 1184.67 1779.16 1247.75 1725.87 1290.07C1672.96 1332 1594.39 1353.36 1490.15 1354.14H1142.74ZM1349.07 990.313V1195.44H1484.27C1521.5 1195.44 1550.11 1187.02 1570.09 1170.17C1590.08 1152.93 1600.08 1128.83 1600.08 1097.87C1600.08 1026.55 1564.61 990.702 1493.67 990.313H1349.07ZM1349.07 855.129H1456.64C1501.71 854.732 1533.85 846.507 1553.05 830.437C1572.25 814.375 1581.85 790.666 1581.85 759.319C1581.85 723.269 1571.47 697.407 1550.7 681.733C1529.93 665.667 1496.42 657.635 1450.17 657.635H1349.07V855.129Z" fill="#FF625E"/>
<path d="M2952.08 1195.44H3361.21V1354.14H2694.62V1245.41L3102.57 657.635H2692.26V498.35H3357.09V604.148L2952.08 1195.44Z" fill="#FF625E"/>
<path d="M4096 1195.44H3686.87L4091.88 604.148V498.35H3427.05V657.635H3837.35L3429.4 1245.41V1354.14H4096V1195.44Z" fill="#FF625E"/>
</mask>
<g mask="url(#mask0_113_90)">
<path d="M1128.71 1548.69L1056.67 422.332L1502.02 356.845L1744.34 514.011L2222.44 933.118L2301.03 749.761L2353.43 422.332L4147.93 356.845L4305.11 1548.69H1128.71Z" fill="#FF625E"/>
</g>
</svg>
