<svg version="1.0" xmlns="http://www.w3.org/2000/svg"
 width="14" height="14" viewBox="0 0 1875.000000 1719.000000"
 preserveAspectRatio="xMidYMid meet">

<g transform="translate(0.000000,1719.000000) scale(0.100000,-0.100000)"
fill="white" stroke="none">
<path d="M9315 16974 c-274 -17 -414 -28 -565 -44 -1496 -163 -2898 -716
-4103 -1618 -315 -236 -563 -449 -855 -737 -1381 -1356 -2242 -3132 -2452
-5055 -36 -334 -45 -501 -45 -910 0 -409 9 -576 45 -910 163 -1495 716 -2898
1618 -4103 236 -315 449 -563 737 -855 1356 -1381 3132 -2242 5055 -2452 334
-36 501 -45 910 -45 409 0 576 9 910 45 2163 236 4133 1296 5532 2977 1046
1256 1700 2800 1878 4433 36 334 45 501 45 910 0 409 -9 576 -45 910 -236
2163 -1296 4133 -2977 5532 -1065 887 -2346 1497 -3711 1768 -320 63 -679 112
-1047 141 -131 10 -818 20 -930 13z m735 -934 c705 -39 1356 -163 1991 -379
96 -33 187 -64 203 -71 l30 -11 -2070 -2070 c-1138 -1138 -2075 -2069 -2082
-2069 -8 0 -64 43 -125 96 -526 452 -1107 584 -1784 404 -62 -17 -119 -30
-128 -30 -9 0 -140 120 -291 268 -270 264 -274 267 -341 289 -196 63 -1277
374 -1291 371 -12 -2 -33 -60 -78 -212 -35 -115 -60 -214 -58 -221 3 -7 38
-22 77 -34 40 -11 312 -91 606 -176 293 -86 545 -162 560 -170 14 -7 103 -91
196 -185 l170 -171 -30 -25 c-148 -126 -227 -200 -293 -276 -239 -277 -373
-551 -438 -899 -25 -129 -30 -456 -10 -606 45 -342 165 -628 379 -903 64 -82
807 -830 824 -830 7 0 455 443 996 985 540 542 987 986 994 985 7 0 47 -31 90
-68 647 -568 1458 -925 2333 -1027 74 -9 239 -19 365 -22 824 -21 1612 185
2315 604 772 461 1384 1165 1745 2009 65 150 166 460 209 634 85 348 119 640
120 1022 1 153 2 278 4 278 5 0 82 -89 180 -209 912 -1113 1476 -2451 1636
-3881 33 -296 40 -445 40 -830 0 -385 -7 -534 -40 -830 -135 -1209 -557 -2350
-1242 -3355 -161 -236 -397 -541 -551 -711 l-53 -59 32 59 33 58 -6 297 c-7
394 -39 652 -122 989 -272 1108 -970 2049 -1965 2650 -516 312 -1084 500
-1745 579 -211 25 -690 25 -900 0 -398 -48 -779 -143 -1135 -284 -432 -171
-808 -399 -1200 -727 -144 -120 -720 -697 -720 -720 0 -15 752 -773 2432
-2453 1338 -1338 2430 -2434 2428 -2436 -3 -2 -68 -27 -145 -55 -653 -234
-1252 -362 -1990 -424 -197 -16 -893 -16 -1090 0 -682 57 -1248 172 -1840 372
-1855 628 -3394 1971 -4275 3730 -1040 2076 -1040 4564 0 6640 1095 2185 3191
3701 5590 4044 470 67 1007 91 1460 66z m3466 -1496 c208 -411 304 -822 304
-1304 0 -526 -127 -981 -404 -1448 -135 -226 -264 -392 -450 -577 -350 -348
-785 -594 -1286 -728 -585 -157 -1248 -112 -1816 124 -134 55 -354 169 -354
183 0 16 3903 3917 3915 3913 5 -2 46 -75 91 -163z m-6598 -3485 c92 -14 218
-63 308 -118 87 -54 174 -126 174 -144 0 -7 -299 -311 -664 -676 -503 -503
-667 -661 -678 -655 -52 31 -174 221 -216 337 -44 121 -56 206 -49 343 12 251
99 460 267 637 217 231 521 329 858 276z m4477 -4197 c61 -11 145 -27 187 -37
l77 -17 -604 -604 c-332 -332 -611 -604 -618 -604 -17 0 -892 876 -892 893 0
29 342 189 545 255 201 66 397 109 600 131 142 16 577 5 705 -17z m1335 -558
c115 -87 276 -234 361 -327 48 -53 60 -72 53 -85 -5 -9 -345 -352 -757 -762
l-747 -745 -268 268 -267 267 741 741 c715 715 742 741 765 729 13 -7 67 -46
119 -86z m978 -1366 c99 -298 142 -571 142 -913 0 -475 -91 -857 -306 -1287
-40 -80 -78 -150 -85 -154 -12 -7 -1139 1112 -1139 1131 0 10 1330 1345 1341
1345 3 0 24 -55 47 -122z"/>
<path d="M4545 11804 c-143 -13 -422 -37 -620 -54 -198 -17 -363 -34 -368 -39
-9 -9 23 -435 34 -452 5 -8 166 2 550 35 299 25 567 49 594 52 l50 6 131 -96
c72 -53 136 -96 142 -96 11 0 272 352 272 368 0 5 -89 76 -199 156 l-199 146
-63 -1 c-35 -1 -181 -12 -324 -25z"/>
</g>
</svg>
