<svg width="411" height="151" viewBox="0 0 411 151" fill="none" xmlns="http://www.w3.org/2000/svg">
<path fill-rule="evenodd" clip-rule="evenodd" d="M0 54.7663V148.814H30.9433C39.0828 148.77 46.4472 146.833 53.0363 143C59.6687 139.124 64.7935 133.785 68.4111 126.981C72.0718 120.134 73.9021 112.405 73.9021 103.792V99.4647C73.8591 90.9385 71.9641 83.2518 68.2173 76.4049C64.5136 69.515 59.3456 64.1968 52.7134 60.4504C46.0812 56.661 38.6091 54.7663 30.2973 54.7663H0ZM22.6745 131.373V72.2709H30.2973C36.9726 72.2709 42.0544 74.5748 45.5428 79.1824C49.0312 83.79 50.7754 90.6372 50.7754 99.7233V103.792C50.7754 112.922 49.0312 119.812 45.5428 124.462C42.0544 129.069 37.0587 131.373 30.5557 131.373H22.6745Z" fill="#E61C34"/>
<path fill-rule="evenodd" clip-rule="evenodd" d="M160.446 57.5537L163.263 54.7369C172.667 45.3336 187.914 45.3336 197.319 54.7369C206.723 64.1402 206.723 79.386 197.319 88.7892L194.502 91.606L160.446 57.5537ZM180.93 66.7688L183.946 69.7851L192.493 61.2397C192.236 60.9426 191.967 60.6527 191.684 60.3705C190.939 59.6258 190.14 58.9693 189.298 58.4009L180.93 66.7688ZM194.151 79.988L187.703 73.5408L195.315 65.9294C197.085 70.495 196.697 75.7048 194.151 79.988ZM177.174 63.0131L172.065 57.9046C175.722 55.7307 180.055 55.13 184.085 56.1023L177.174 63.0131Z" fill="#E61C34"/>
<path fill-rule="evenodd" clip-rule="evenodd" d="M163.8 37.5569L152.589 48.7664L148.834 45.0107C144.669 40.8469 144.669 34.0959 148.834 29.932C149.257 29.509 149.706 29.1291 150.177 28.7921L148.122 26.7542L141.052 24.6853L141.799 22.1365L149.514 24.3945L152.631 27.4847C156.424 26.066 160.863 26.8818 163.914 29.932L164.151 30.169L194.322 0L197.14 2.81679C206.544 12.2201 206.544 27.4658 197.14 36.869C187.97 46.0372 173.247 46.2665 163.8 37.5569ZM171.886 33.7014L193.972 11.618C197.648 17.8013 196.825 25.9157 191.505 31.2355C186.185 36.5553 178.07 37.3773 171.886 33.7014ZM152.155 34.1777C150.511 36.2773 150.656 39.3217 152.589 41.255L160.157 33.6878C158.224 31.7545 155.179 31.6098 153.079 33.2537C152.909 33.3867 152.746 33.5314 152.589 33.6878C152.433 33.8441 152.288 34.0078 152.155 34.1777Z" fill="#E61C34"/>
<path d="M146.169 27.8468L138.419 28.5101L138.645 31.1561L145.4 30.5779L146.931 31.703L148.504 29.5633L146.169 27.8468Z" fill="#E61C34"/>
<mask id="mask0_1258_2" style="mask-type:alpha" maskUnits="userSpaceOnUse" x="85" y="54" width="326" height="97">
<path d="M170.659 77.4473V116.776C170.789 127.111 174.148 135.249 180.738 141.192C187.327 147.134 196.349 150.105 207.805 150.105C215.384 150.105 221.952 148.77 227.508 146.1C233.063 143.431 237.327 139.555 240.298 134.474C243.27 129.349 244.756 123.299 244.756 116.323V54.7663H222.081V116.194C222.081 122.008 220.875 126.206 218.464 128.789C216.052 131.373 212.499 132.665 207.805 132.665C198.502 132.665 193.721 127.519 193.464 117.228V100.249L170.659 77.4473Z" fill="white"/>
<path fill-rule="evenodd" clip-rule="evenodd" d="M85.5816 148.814V54.7663H119.367C131.469 54.7663 140.664 56.9839 146.952 61.4193C153.283 65.8547 156.448 72.2924 156.448 80.7326C156.448 85.5986 155.328 89.7537 153.089 93.1987C150.849 96.6436 147.555 99.1847 143.205 100.821C148.115 102.113 151.883 104.525 154.51 108.056C157.137 111.587 158.451 115.893 158.451 120.974C158.451 130.189 155.522 137.122 149.665 141.773C143.851 146.38 135.216 148.728 123.76 148.814H85.5816ZM108.256 108.831V131.373H123.115C127.205 131.373 130.349 130.448 132.546 128.596C134.742 126.702 135.841 124.053 135.841 120.651C135.841 112.813 131.943 108.873 124.148 108.831H108.256ZM108.256 93.9746H120.078C125.031 93.931 128.563 93.0272 130.673 91.2611C132.783 89.496 133.838 86.8905 133.838 83.4455C133.838 79.4838 132.697 76.6417 130.414 74.9193C128.132 73.1537 124.45 72.2709 119.367 72.2709H108.256V93.9746Z" fill="white"/>
<path d="M284.42 131.373H329.381V148.814H256.126V136.864L300.957 72.2709H255.867V54.7663H328.929V66.393L284.42 131.373Z" fill="white"/>
<path d="M410.131 131.373H365.169L409.679 66.393V54.7663H336.617V72.2709H381.707L336.874 136.864V148.814H410.131V131.373Z" fill="white"/>
</mask>
<g mask="url(#mask0_1258_2)">
<path d="M84.0402 170.194L76.1229 46.4123L125.065 39.2156L151.695 56.4874L204.236 102.545L212.872 82.3952L218.631 46.4123L415.838 39.2156L433.111 170.194H84.0402Z" fill="white"/>
</g>
</svg>
