<svg width="500" height="500" viewBox="0 0 500 500" fill="none" xmlns="http://www.w3.org/2000/svg">
<path d="M489.366 0H10.6338C4.76093 0 0 3.86705 0 8.63729V491.363C0 496.133 4.76093 500 10.6338 500H489.366C495.239 500 500 496.133 500 491.363V8.63729C500 3.86705 495.239 0 489.366 0Z" fill="#E65768"/>
<path d="M240.099 181.796L177.058 200.282C172.608 201.587 170.058 206.252 171.363 210.702L192.094 281.401C193.399 285.852 198.064 288.401 202.515 287.096L265.556 268.611C270.006 267.306 272.556 262.64 271.251 258.19L250.52 187.491C249.215 183.041 244.549 180.491 240.099 181.796Z" fill="#EEEEEE"/>
<path d="M329.534 169.011L234.867 141.292C232.431 140.578 229.878 141.975 229.165 144.411L199.16 246.882C198.447 249.318 199.844 251.871 202.28 252.584L296.946 280.304C299.383 281.017 301.936 279.62 302.649 277.184L332.653 174.713C333.367 172.277 331.97 169.724 329.534 169.011Z" fill="url(#paint0_linear_106_35)" stroke="white" stroke-width="5.398" stroke-linecap="round" stroke-linejoin="round"/>
<path d="M320.308 177.31L238.933 153.483L217.1 228.046L298.475 251.873L320.308 177.31Z" fill="#CCCCCC" stroke="white" stroke-width="2.25674" stroke-linecap="round" stroke-linejoin="round"/>
<path d="M320.308 177.31L238.933 153.483L228.745 188.279L310.12 212.106L320.308 177.31Z" fill="white" stroke="white" stroke-width="2.25674" stroke-linecap="round" stroke-linejoin="round"/>
<path fill-rule="evenodd" clip-rule="evenodd" d="M233.716 189.735L242.686 182.73L254.907 178.183L256.638 182.032L260.77 176.282L262.274 176.186L265.848 172.158L286.94 210.716" fill="#CCCCCC"/>
<path d="M233.716 189.735L242.686 182.73L254.907 178.183L256.638 182.032L260.77 176.282L262.274 176.186L265.848 172.158L286.94 210.716" stroke="white" stroke-width="2.25674" stroke-linecap="round" stroke-linejoin="round"/>
<path fill-rule="evenodd" clip-rule="evenodd" d="M265.848 172.158C265.727 175.086 265.521 178.011 265.232 180.928C265.013 183.141 264.745 185.35 264.429 187.552L261.12 185.295L254.907 178.183L253.537 186.134L252.066 190.163L252.258 195.684L264.955 197.287L279.909 197.863L275.746 182.714L273.414 184.718L269.993 179.735L265.848 172.158Z" fill="#B3B3B3" stroke="white" stroke-width="2.25674" stroke-linecap="round" stroke-linejoin="round"/>
<path fill-rule="evenodd" clip-rule="evenodd" d="M252.144 200.528L269.325 192.168L272.861 191.462L278.924 185.288L284.276 182.951L305.368 221.509" fill="#CCCCCC"/>
<path d="M252.144 200.528L269.325 192.168L272.861 191.462L278.924 185.288L284.276 182.951L305.368 221.509" stroke="white" stroke-width="2.25674" stroke-linecap="round" stroke-linejoin="round"/>
<path fill-rule="evenodd" clip-rule="evenodd" d="M284.276 182.951L286.305 198.101L284.844 203.091L283.383 208.08L286.16 212.395C287.554 211.643 289.077 211.129 290.641 210.882C293.437 210.44 296.288 210.851 299.118 210.913C300.267 210.938 301.444 210.901 302.518 210.493C302.792 210.388 303.056 210.261 303.308 210.112L298.338 208.657L293.591 199.971L291.017 190.417L288.889 191.384L284.276 182.951Z" fill="#B3B3B3" stroke="white" stroke-width="2.25674" stroke-linecap="round" stroke-linejoin="round"/>
<path fill-rule="evenodd" clip-rule="evenodd" d="M241.955 235.324C242.352 233.713 241.348 231.979 246.281 231.073C252.332 229.963 268.882 231.235 274.402 228.516C278.486 226.505 264.562 218.858 268.152 216.059C269.779 214.789 278.903 215.614 283.232 215.028C287.336 214.472 286.702 212.481 289.89 211.585C292.97 210.719 302.175 211.624 303.308 210.112C301.072 211.35 290.913 210.153 286.94 210.716C282.747 211.311 282.416 212.977 277.319 213.204C271.828 213.447 261.551 212.284 258.82 213.277C253.1 215.356 264.518 222.609 258.594 224.005C250.571 225.895 231.748 223.933 223.527 224.531C217.846 224.944 217.959 226.094 217.1 228.046" fill="white"/>
<path d="M241.955 235.324C242.352 233.713 241.348 231.979 246.281 231.073C252.332 229.963 268.882 231.235 274.402 228.516C278.486 226.505 264.562 218.858 268.152 216.059C269.779 214.789 278.903 215.614 283.232 215.028C287.336 214.472 286.702 212.481 289.89 211.585C292.97 210.719 302.175 211.624 303.308 210.112C301.072 211.35 290.913 210.153 286.94 210.716C282.747 211.311 282.416 212.977 277.319 213.204C271.828 213.447 261.551 212.284 258.82 213.277C253.1 215.356 264.518 222.609 258.594 224.005C250.571 225.895 231.748 223.933 223.527 224.531C217.846 224.944 217.959 226.094 217.1 228.046" stroke="white" stroke-width="2.25674" stroke-linecap="round" stroke-linejoin="round"/>
<path d="M98.4886 328.727V352H94.2386L84.1136 337.352H83.9432V352H79.0227V328.727H83.3409L93.3864 343.364H93.5909V328.727H98.4886ZM123.94 340.364C123.94 342.902 123.459 345.061 122.497 346.841C121.543 348.621 120.24 349.981 118.588 350.92C116.944 351.852 115.096 352.318 113.043 352.318C110.974 352.318 109.118 351.848 107.474 350.909C105.83 349.97 104.531 348.61 103.577 346.83C102.622 345.049 102.145 342.894 102.145 340.364C102.145 337.826 102.622 335.667 103.577 333.886C104.531 332.106 105.83 330.75 107.474 329.818C109.118 328.879 110.974 328.409 113.043 328.409C115.096 328.409 116.944 328.879 118.588 329.818C120.24 330.75 121.543 332.106 122.497 333.886C123.459 335.667 123.94 337.826 123.94 340.364ZM118.952 340.364C118.952 338.72 118.705 337.333 118.213 336.205C117.728 335.076 117.043 334.22 116.156 333.636C115.27 333.053 114.232 332.761 113.043 332.761C111.853 332.761 110.815 333.053 109.929 333.636C109.043 334.22 108.353 335.076 107.861 336.205C107.376 337.333 107.134 338.72 107.134 340.364C107.134 342.008 107.376 343.394 107.861 344.523C108.353 345.652 109.043 346.508 109.929 347.091C110.815 347.674 111.853 347.966 113.043 347.966C114.232 347.966 115.27 347.674 116.156 347.091C117.043 346.508 117.728 345.652 118.213 344.523C118.705 343.394 118.952 342.008 118.952 340.364ZM139.912 328.727V352H134.991V328.727H139.912ZM143.96 328.727H150.028L156.438 344.364H156.71L163.119 328.727H169.188V352H164.415V336.852H164.222L158.199 351.886H154.949L148.926 336.795H148.733V352H143.96V328.727ZM177.253 352H171.98L180.014 328.727H186.355L194.378 352H189.105L183.276 334.045H183.094L177.253 352ZM176.923 342.852H189.378V346.693H176.923V342.852ZM211.517 336.25C211.358 335.697 211.134 335.208 210.847 334.784C210.559 334.352 210.206 333.989 209.79 333.693C209.381 333.39 208.911 333.159 208.381 333C207.858 332.841 207.278 332.761 206.642 332.761C205.453 332.761 204.407 333.057 203.506 333.648C202.612 334.239 201.915 335.098 201.415 336.227C200.915 337.348 200.665 338.72 200.665 340.341C200.665 341.962 200.911 343.341 201.403 344.477C201.896 345.614 202.593 346.481 203.494 347.08C204.396 347.67 205.46 347.966 206.688 347.966C207.801 347.966 208.752 347.769 209.54 347.375C210.335 346.973 210.941 346.409 211.358 345.682C211.782 344.955 211.994 344.095 211.994 343.102L212.994 343.25H206.994V339.545H216.733V342.477C216.733 344.523 216.301 346.28 215.438 347.75C214.574 349.212 213.384 350.341 211.869 351.136C210.354 351.924 208.619 352.318 206.665 352.318C204.483 352.318 202.566 351.837 200.915 350.875C199.263 349.905 197.975 348.53 197.051 346.75C196.134 344.962 195.676 342.841 195.676 340.386C195.676 338.5 195.949 336.818 196.494 335.341C197.047 333.856 197.82 332.598 198.812 331.568C199.805 330.538 200.96 329.754 202.278 329.216C203.597 328.678 205.025 328.409 206.562 328.409C207.881 328.409 209.108 328.602 210.244 328.989C211.381 329.367 212.388 329.905 213.267 330.602C214.153 331.299 214.877 332.129 215.438 333.091C215.998 334.045 216.358 335.098 216.517 336.25H211.517ZM220.429 352V328.727H236.111V332.784H225.349V338.33H235.304V342.386H225.349V347.943H236.156V352H220.429ZM251.44 352H246.168L254.202 328.727H260.543L268.565 352H263.293L257.463 334.045H257.281L251.44 352ZM251.111 342.852H263.565V346.693H251.111V342.852ZM272.665 328.727L278.29 346.409H278.506L284.142 328.727H289.597L281.574 352H275.233L267.199 328.727H272.665ZM293.315 352H288.043L296.077 328.727H302.418L310.44 352H305.168L299.338 334.045H299.156L293.315 352ZM292.986 342.852H305.44V346.693H292.986V342.852ZM318.162 328.727V352H313.241V328.727H318.162ZM322.21 352V328.727H327.131V347.943H337.108V352H322.21ZM344.972 352H339.699L347.733 328.727H354.074L362.097 352H356.824L350.994 334.045H350.812L344.972 352ZM344.642 342.852H357.097V346.693H344.642V342.852ZM364.898 352V328.727H374.216C375.928 328.727 377.356 328.981 378.5 329.489C379.644 329.996 380.504 330.701 381.08 331.602C381.655 332.496 381.943 333.527 381.943 334.693C381.943 335.602 381.761 336.402 381.398 337.091C381.034 337.773 380.534 338.333 379.898 338.773C379.269 339.205 378.549 339.511 377.739 339.693V339.92C378.625 339.958 379.455 340.208 380.227 340.67C381.008 341.133 381.64 341.78 382.125 342.614C382.61 343.439 382.852 344.424 382.852 345.568C382.852 346.803 382.545 347.905 381.932 348.875C381.326 349.837 380.428 350.598 379.239 351.159C378.049 351.72 376.583 352 374.841 352H364.898ZM369.818 347.977H373.83C375.201 347.977 376.201 347.716 376.83 347.193C377.458 346.663 377.773 345.958 377.773 345.08C377.773 344.436 377.617 343.867 377.307 343.375C376.996 342.883 376.553 342.496 375.977 342.216C375.409 341.936 374.731 341.795 373.943 341.795H369.818V347.977ZM369.818 338.466H373.466C374.14 338.466 374.739 338.348 375.261 338.114C375.792 337.871 376.208 337.53 376.511 337.091C376.822 336.652 376.977 336.125 376.977 335.511C376.977 334.67 376.678 333.992 376.08 333.477C375.489 332.962 374.648 332.705 373.557 332.705H369.818V338.466ZM386.054 352V328.727H390.974V347.943H400.952V352H386.054ZM404.21 352V328.727H419.892V332.784H409.131V338.33H419.085V342.386H409.131V347.943H419.938V352H404.21Z" fill="#EEEEEE"/>
<defs>
<linearGradient id="paint0_linear_106_35" x1="293.867" y1="164.093" x2="263.61" y2="261.701" gradientUnits="userSpaceOnUse">
<stop stop-color="#C2C2C2"/>
<stop offset="1" stop-color="#9F9F9F"/>
</linearGradient>
</defs>
</svg>
